<svg width="24" height="24" viewBox="0 0 24 24" fill="none" xmlns="http://www.w3.org/2000/svg">
<path d="M16.1103 11.9732L21.7487 7.07452V16.8159L16.1103 11.9732ZM8.8448 12.8028L10.8248 14.5215C11.1355 14.7855 11.5407 14.945 11.9835 14.945H11.999H12.011C12.4546 14.945 12.8598 14.7846 13.1742 14.5187L13.1715 14.5206L15.1514 12.8018L21.1703 17.9709H2.82874L8.8448 12.8028ZM2.82049 5.91311H21.1813L12.362 13.5727C12.2629 13.6512 12.1401 13.6938 12.0137 13.6937H12.0009H11.989C11.8621 13.6939 11.7389 13.6509 11.6397 13.5718L11.6406 13.5727L2.82049 5.91311ZM2.25125 7.07361L7.88872 11.9723L2.25125 16.8122V7.07361ZM22.0512 4.83603C21.8312 4.72603 21.5727 4.66187 21.2986 4.66187H2.70408C2.43839 4.66193 2.17636 4.72375 1.93866 4.84245L1.94875 4.83786C1.66419 4.97822 1.42455 5.19534 1.2569 5.46472C1.08925 5.7341 1.00026 6.04499 1 6.36228V17.5199C1.00049 17.9715 1.18008 18.4044 1.49938 18.7237C1.81868 19.043 2.2516 19.2226 2.70316 19.2231H21.2958C21.7474 19.2226 22.1803 19.043 22.4996 18.7237C22.8189 18.4044 22.9985 17.9715 22.999 17.5199V6.36228C22.999 5.69586 22.6149 5.11836 22.0558 4.84061L22.0457 4.83603H22.0512Z" fill="white"/>
</svg>
