<svg width="664" height="124" viewBox="0 0 664 124" fill="none" xmlns="http://www.w3.org/2000/svg">
<path d="M0 50.8844C0.61935 76.2158 20.996 96.5923 46.3274 97.2736C46.2655 71.7564 25.5172 51.0083 0 50.8844Z" fill="#031926"/>
<path d="M96.578 47.0899C95.9586 21.7585 75.5819 1.3818 50.2505 0.762451C50.3125 26.2797 71.0608 47.0279 96.578 47.0899Z" fill="#031926"/>
<path d="M46.378 0.700684C21.0466 1.32003 0.669887 21.6967 0.0505371 47.0281C25.5677 46.9662 46.316 26.2179 46.378 0.700684Z" fill="#031926"/>
<path d="M50.2436 97.3974H49.0668H96.7568V50.8844C71.1157 50.8844 50.2436 71.7564 50.2436 97.3974Z" fill="#031926"/>
<path d="M644.184 33.0723H663.065L637.742 99.0041C631.19 116.275 621.638 123.839 607.755 123.839C601.979 123.839 597.093 123.082 592.317 121.822L594.094 105.181C598.092 106.442 602.424 107.072 605.978 107.072C612.531 107.072 617.751 103.921 620.194 97.4913L621.083 95.0961H616.751L588.096 33.0723H609.754L628.191 76.0603L644.184 33.0723Z" fill="#031926"/>
<path d="M563.717 8.67566H584.375V97.1103H563.717V8.67566Z" fill="#031926"/>
<path d="M514.174 97.1129V33.0721H534.832L533.722 47.6956H534.388C535.832 39.1232 541.83 32.3157 551.492 32.3157C553.158 32.3157 554.935 32.4417 557.045 32.946V52.7382C553.602 51.8557 550.382 51.6036 548.827 51.6036C539.608 51.6036 534.832 58.6632 534.832 71.1436V97.1129H514.174Z" fill="#031926"/>
<path d="M469.483 99.6338C447.825 99.6338 432.276 85.5145 432.276 65.092C432.276 44.9217 447.714 30.5503 469.483 30.5503C491.141 30.5503 506.69 44.7956 506.69 65.092C506.69 85.2624 491.363 99.6338 469.483 99.6338ZM469.594 85.0102C478.923 85.0102 485.476 76.69 485.476 65.092C485.476 53.1159 478.701 44.7956 469.372 44.7956C460.153 44.7956 453.49 53.1159 453.49 64.966C453.49 76.69 460.265 85.0102 469.594 85.0102Z" fill="#031926"/>
<path d="M401.091 31.8116C416.418 31.8116 425.747 42.9053 425.747 61.1847V97.1131H405.089V63.706C405.089 53.2426 400.647 47.0654 392.983 47.0654C385.209 47.0654 380.655 52.9905 380.655 63.0756V97.1131H359.997V8.67853H380.655L380.655 46.5611H380.766C383.765 37.4845 391.317 31.8116 401.091 31.8116Z" fill="#031926"/>
<path d="M340.128 97.9962C326.689 97.9962 317.026 89.802 317.026 71.0184V47.4442H306.586V33.0729H312.362C316.471 33.0729 318.692 30.1734 318.692 25.0047V16.4323H339.573V18.1972C339.573 26.1393 337.462 31.0558 333.464 32.5686V33.0729H352.789V47.4442H337.462V67.9928C337.462 76.187 340.905 80.8514 347.125 80.8514C348.458 80.8514 351.012 80.8514 352.789 80.4732V96.9877C349.013 97.618 344.682 97.9962 340.128 97.9962Z" fill="#031926"/>
<path d="M299.642 76.0603L299.975 97.1131H279.65L279.539 83.12H278.487L278.984 82.4896C276.318 92.4488 269.099 98.3738 258.659 98.3738C243.665 98.3738 233.892 86.9019 233.892 68.7486V33.0723H254.55V65.8491C254.55 76.8167 258.881 83.12 266.767 83.12C274.319 83.12 278.984 77.447 278.984 66.8576V33.0723H299.642V76.0603Z" fill="#031926"/>
<path d="M210.608 97.1134L202.611 75.1781H166.626L158.629 97.1134H136.416L170.402 8.8681H199.057L233.043 97.1134H210.608ZM172.068 60.4286H197.169L184.618 26.265L172.068 60.4286Z" fill="#031926"/>
</svg>
