<svg width="28" height="28" viewBox="0 0 28 28" fill="none" xmlns="http://www.w3.org/2000/svg">
<rect x="11.6665" y="3.5" width="4.66667" height="21" rx="2.33333" fill="#745BD8"/>
<path opacity="0.4" d="M2.33325 11.6666C2.33325 10.3779 3.37792 9.33325 4.66658 9.33325V9.33325C5.95525 9.33325 6.99992 10.3779 6.99992 11.6666V22.1666C6.99992 23.4553 5.95525 24.4999 4.66658 24.4999V24.4999C3.37792 24.4999 2.33325 23.4553 2.33325 22.1666V11.6666Z" fill="#745BD8"/>
<path opacity="0.4" d="M21 11.6666C21 10.3779 22.0447 9.33325 23.3333 9.33325V9.33325C24.622 9.33325 25.6667 10.3779 25.6667 11.6666V22.1666C25.6667 23.4553 24.622 24.4999 23.3333 24.4999V24.4999C22.0447 24.4999 21 23.4553 21 22.1666V11.6666Z" fill="#745BD8"/>
</svg>
