<svg width="50" height="40" viewBox="0 0 50 40" fill="none" xmlns="http://www.w3.org/2000/svg">
<g clip-path="url(#clip0_35_634)">
<g clip-path="url(#clip1_35_634)">
<path fill-rule="evenodd" clip-rule="evenodd" d="M49.7807 6.24729C42.3247 9.71802 38.5967 13.7961 38.5967 18.4816C41.7747 18.8286 44.4026 20.0578 46.4805 22.1692C48.5584 24.2806 49.5974 26.7245 49.5974 29.5011C49.5974 32.4512 48.589 34.9385 46.5722 36.9631C44.5554 38.9877 42.0192 40 38.9634 40C35.541 40 32.5769 38.684 30.0712 36.0521C27.5655 33.4201 26.3127 30.2242 26.3127 26.4642C26.3127 15.1843 32.9741 6.36301 46.2972 0L49.7807 6.24729ZM23.4681 6.24729C15.9509 9.71802 12.1924 13.7961 12.1924 18.4816C15.4315 18.8286 18.09 20.0578 20.1679 22.1692C22.2458 24.2806 23.2847 26.7245 23.2847 29.5011C23.2847 32.4512 22.2611 34.9385 20.2137 36.9631C18.1663 38.9877 15.6148 40 12.5591 40C9.13664 40 6.18788 38.684 3.71272 36.0521C1.23756 33.4201 0 30.2242 0 26.4642C0 15.1843 6.63088 6.36301 19.8928 0L23.4681 6.24729Z" fill="#F3F5F6"/>
</g>
</g>
<defs>
<clipPath id="clip0_35_634">
<rect width="50" height="40" fill="white"/>
</clipPath>
<clipPath id="clip1_35_634">
<rect width="50" height="40" fill="white"/>
</clipPath>
</defs>
</svg>
