<svg width="28" height="28" viewBox="0 0 28 28" fill="none" xmlns="http://www.w3.org/2000/svg">
<path opacity="0.4" d="M2.33331 6.99992C2.33331 4.42259 4.42265 2.33325 6.99998 2.33325H16.3333C18.9106 2.33325 21 4.42259 21 6.99992V16.3333C21 18.9106 18.9106 20.9999 16.3333 20.9999H6.99998C4.42265 20.9999 2.33331 18.9106 2.33331 16.3333V6.99992Z" fill="white"/>
<path fill-rule="evenodd" clip-rule="evenodd" d="M7 21C7 23.5773 9.08934 25.6667 11.6667 25.6667H21C23.5773 25.6667 25.6667 23.5773 25.6667 21V11.6667C25.6667 9.08934 23.5773 7 21 7V16.3333C21 18.9107 18.9107 21 16.3333 21H7Z" fill="white"/>
<path fill-rule="evenodd" clip-rule="evenodd" d="M10.7917 7C10.7917 6.51675 11.1834 6.125 11.6667 6.125C14.7272 6.125 17.2083 8.60609 17.2083 11.6667C17.2083 12.1499 16.8166 12.5417 16.3333 12.5417C15.8501 12.5417 15.4583 12.1499 15.4583 11.6667C15.4583 9.87374 14.2139 8.37147 12.5417 7.97646V14C12.5417 15.7719 11.1052 17.2083 9.33333 17.2083C7.56142 17.2083 6.125 15.7719 6.125 14C6.125 12.2281 7.56142 10.7917 9.33333 10.7917C9.85846 10.7917 10.3541 10.9178 10.7917 11.1415V7Z" fill="white"/>
</svg>
