<svg width="28" height="28" viewBox="0 0 28 28" fill="none" xmlns="http://www.w3.org/2000/svg">
<path d="M23.3333 9.33325H21V23.3333C21 24.6219 22.0447 25.6666 23.3333 25.6666C24.622 25.6666 25.6667 24.6219 25.6667 23.3333V11.6666C25.6667 10.3779 24.622 9.33325 23.3333 9.33325Z" fill="white"/>
<path opacity="0.4" d="M17.5 2.33325H5.83333C3.90033 2.33325 2.33333 3.90025 2.33333 5.83325V22.1666C2.33333 24.0996 3.90033 25.6666 5.83333 25.6666H23.3333C22.0447 25.6666 21 24.6219 21 23.3333V5.83325C21 3.90026 19.433 2.33325 17.5 2.33325Z" fill="white"/>
<path fill-rule="evenodd" clip-rule="evenodd" d="M6.125 8.16675C6.125 7.6835 6.51675 7.29175 7 7.29175H16.3333C16.8166 7.29175 17.2083 7.6835 17.2083 8.16675C17.2083 8.65 16.8166 9.04175 16.3333 9.04175H7C6.51675 9.04175 6.125 8.65 6.125 8.16675Z" fill="white"/>
<path fill-rule="evenodd" clip-rule="evenodd" d="M6.125 14C6.125 13.5168 6.51675 13.125 7 13.125L16.3333 13.125C16.8166 13.125 17.2083 13.5168 17.2083 14C17.2083 14.4832 16.8166 14.875 16.3333 14.875L7 14.875C6.51675 14.875 6.125 14.4832 6.125 14Z" fill="white"/>
<path fill-rule="evenodd" clip-rule="evenodd" d="M6.125 19.8333C6.125 19.35 6.51675 18.9583 7 18.9583H11.6667C12.1499 18.9583 12.5417 19.35 12.5417 19.8333C12.5417 20.3165 12.1499 20.7083 11.6667 20.7083H7C6.51675 20.7083 6.125 20.3165 6.125 19.8333Z" fill="white"/>
</svg>
