<svg width="24" height="20" viewBox="0 0 24 20" fill="none" xmlns="http://www.w3.org/2000/svg">
<g clip-path="url(#clip0_202_276)">
<path fill-rule="evenodd" clip-rule="evenodd" d="M23.8947 3.12364C20.3159 4.85901 18.5264 6.89804 18.5264 9.24078C20.0519 9.41432 21.3133 10.0289 22.3107 11.0846C23.3081 12.1403 23.8067 13.3622 23.8067 14.7505C23.8067 16.2256 23.3227 17.4693 22.3547 18.4816C21.3866 19.4939 20.1692 20 18.7024 20C17.0597 20 15.6369 19.342 14.4342 18.026C13.2314 16.71 12.6301 15.1121 12.6301 13.2321C12.6301 7.59216 15.8276 3.18151 22.2226 0L23.8947 3.12364ZM11.2647 3.12364C7.65644 4.85901 5.85235 6.89804 5.85235 9.24078C7.40711 9.41432 8.68318 10.0289 9.68057 11.0846C10.678 12.1403 11.1767 13.3622 11.1767 14.7505C11.1767 16.2256 10.6853 17.4693 9.70257 18.4816C8.71984 19.4939 7.49512 20 6.02836 20C4.38558 20 2.97018 19.342 1.78211 18.026C0.594029 16.71 0 15.1121 0 13.2321C0 7.59216 3.18282 3.18151 9.54857 0L11.2647 3.12364Z" fill="#745BD8"/>
</g>
<defs>
<clipPath id="clip0_202_276">
<rect width="24" height="20" fill="white"/>
</clipPath>
</defs>
</svg>
