<svg width="121" height="22" viewBox="0 0 121 22" fill="none" xmlns="http://www.w3.org/2000/svg">
<g id="Story.com">
<path id="Union" fill-rule="evenodd" clip-rule="evenodd" d="M32.2356 0.00513325C32.2355 0.00228878 32.2332 0 32.2304 0C32.2275 0 32.2252 0.00228733 32.2251 0.00513179C32.0456 5.94834 27.2946 10.7422 21.3689 10.9899V7.73024H24.8888V5.67691H20.5791V5.56409C21.3914 5.33845 21.7976 4.48101 21.7976 3.14973V2.65332H18.413V4.23281C18.413 5.15794 17.9392 5.67691 17.1043 5.67691H15.8633V7.73024H18.052V12.6492C18.052 15.8308 19.8571 17.2749 22.4519 17.2749C23.3319 17.2749 24.0991 17.1846 24.8437 17.0492L24.8888 14.68C24.415 14.7928 23.9186 14.8379 23.5801 14.8379C22.1586 14.8379 21.3689 13.8902 21.3689 12.2205V11.0101C27.2946 11.2578 32.0456 16.0517 32.2251 21.9949C32.2252 21.9977 32.2275 22 32.2304 22C32.2311 22 32.2318 21.9998 32.2324 21.9996C32.2329 21.9994 32.2333 21.9991 32.2337 21.9988C32.2338 21.9987 32.2339 21.9986 32.234 21.9985C32.235 21.9976 32.2356 21.9963 32.2356 21.9949C32.3931 16.7813 36.0685 12.4522 40.9688 11.3006V17.0919H44.3082V12.2406C44.3082 9.71342 45.4138 8.29188 47.4897 8.29188C47.8507 8.29188 48.3923 8.33701 49.0466 8.4724L49.1143 5.65188C48.663 5.56163 48.2795 5.53906 47.9184 5.53906C45.8877 5.53906 44.6015 6.78009 44.2856 8.42727H44.1277L44.3082 5.67445H40.9688V10.6994C36.0685 9.54776 32.3931 5.2187 32.2356 0.00513325ZM31.2416 13.4702L34.7585 11.4082C34.8272 11.3671 34.8841 11.3087 34.9236 11.2387C34.9632 11.1686 34.984 11.0894 34.984 11.0089C34.984 10.9283 34.9632 10.8491 34.9236 10.7791C34.8841 10.709 34.8272 10.6506 34.7585 10.6095L31.2416 8.52893C31.1709 8.48549 31.0899 8.46207 31.0072 8.46114C30.9245 8.4602 30.843 8.48178 30.7714 8.5236C30.6998 8.56543 30.6407 8.62595 30.6003 8.69881C30.5599 8.77166 30.5397 8.85416 30.5418 8.93761V13.0615C30.5397 13.145 30.5599 13.2275 30.6003 13.3003C30.6407 13.3732 30.6998 13.4337 30.7714 13.4755C30.843 13.5174 30.9245 13.5389 31.0072 13.538C31.0899 13.5371 31.1709 13.5136 31.2416 13.4702ZM67.5312 11.4062C67.5312 15.2647 70.7353 17.5436 74.7968 17.5436C78.8583 17.5436 81.4532 15.3098 81.6788 12.5344L78.5199 12.4441C78.3168 14.1816 76.7824 15.3775 74.8419 15.3775C72.5404 15.3775 70.961 13.6852 70.961 11.3385C70.961 8.99184 72.5404 7.27697 74.7743 7.27697C76.7148 7.27697 78.1814 8.54056 78.3845 10.278L81.566 10.1426C81.3403 7.32209 78.6778 5.22363 74.7743 5.22363C70.6902 5.22363 67.5312 7.5703 67.5312 11.4062ZM89.6592 17.5436C85.4398 17.5436 82.3711 15.0165 82.3711 11.4062C82.3711 7.8185 85.3947 5.22363 89.6818 5.22363C93.9012 5.22363 96.9699 7.75081 96.9699 11.3611C96.9699 14.9488 93.9464 17.5436 89.6592 17.5436ZM89.7044 15.4677C91.9382 15.4677 93.5402 13.7529 93.5402 11.3836C93.5402 8.96927 91.8931 7.23184 89.6367 7.23184C87.4028 7.23184 85.8008 8.96927 85.8008 11.3611C85.8008 13.7529 87.448 15.4677 89.7044 15.4677ZM115.037 5.44824C118.151 5.44824 120.069 7.43388 120.069 10.7057V17.0913H116.729V11.0667C116.729 8.90055 115.669 7.6144 113.909 7.6144C112.059 7.6144 110.976 8.81029 110.976 10.8411V17.0913H107.636V11.0667C107.636 8.90055 106.531 7.6144 104.68 7.6144C102.807 7.6144 101.679 8.90055 101.679 11.0893V17.0913H98.3398V5.67388H101.634L101.589 8.29132H101.747C102.311 6.53132 103.891 5.44824 105.989 5.44824C108.223 5.44824 109.825 6.48619 110.547 8.29132H110.569C111.156 6.59901 112.848 5.44824 115.037 5.44824ZM66.9206 15.6718C66.9206 16.8889 65.8697 17.7698 64.4044 17.7698C62.9243 17.7698 61.8438 16.8889 61.8438 15.6602C61.8438 14.4316 62.8947 13.5391 64.36 13.5391C65.8401 13.5391 66.9206 14.4316 66.9206 15.6718ZM61.0154 5.67578L57.2924 14.2276L53.0052 5.67578H49.5078L55.4647 16.845H56.1642L55.8483 17.5671C55.3067 18.8081 54.2462 19.3948 52.8924 19.3948C52.1704 19.3948 51.3355 19.2594 50.5683 18.9886L50.275 21.403C51.1775 21.6512 52.1027 21.7866 53.1632 21.7866C55.6678 21.7866 57.4503 20.5681 58.6462 17.8153L64.0841 5.67578H61.0154ZM0 11.7236C0.135383 15.2887 3.2492 17.5451 8.123 17.5451C12.4553 17.5451 15.6593 15.8077 15.6593 12.6712C15.6593 10.2569 13.8768 8.31637 9.97324 7.84253L6.45327 7.39125C4.85124 7.18817 3.99381 6.39843 3.99381 5.27022C3.99381 3.78099 5.4379 2.87843 7.60403 2.87843C10.1538 2.87843 11.8235 4.29996 11.9363 6.51125L15.1178 6.42099C15.0276 2.99125 12.1845 0.847656 7.71685 0.847656C3.20407 0.847656 0.631789 2.87843 0.631789 5.74407C0.631789 8.49689 2.77536 10.0312 5.75379 10.3923L9.2512 10.821C11.1691 11.0692 12.2748 11.9266 12.2748 13.1451C12.2748 14.5892 10.7404 15.4692 8.25838 15.4692C5.27995 15.4692 3.33946 13.9574 3.27176 11.6333L0 11.7236Z" fill="url(#paint0_linear_4089_10325)"/>
</g>
<defs>
<linearGradient id="paint0_linear_4089_10325" x1="19" y1="-5.31371e-06" x2="120" y2="30" gradientUnits="userSpaceOnUse">
<stop stop-color="#BB55F7"/>
<stop offset="1" stop-color="#C9FF86"/>
</linearGradient>
</defs>
</svg>
