<svg width="263" height="48" viewBox="0 0 263 48" fill="none" xmlns="http://www.w3.org/2000/svg">
<path fill-rule="evenodd" clip-rule="evenodd" d="M70.5121 0.0116881C70.5118 0.00548198 70.5066 0.000488281 70.5005 0.000488281C70.4942 0.000488281 70.4891 0.00547882 70.4889 0.0116849C70.0973 12.9787 59.7317 23.4379 46.8027 23.9786V16.8665H54.4827V12.3865H45.0797V12.1403C46.852 11.648 47.738 9.77725 47.738 6.87264V5.78954H40.3534V9.2357C40.3534 11.2542 39.3197 12.3865 37.4981 12.3865H34.7905V16.8665H39.5658V27.5989C39.5658 34.5403 43.5042 37.6911 49.1658 37.6911C51.0858 37.6911 52.7595 37.4941 54.3841 37.1989L54.4827 32.0295C53.4487 32.2758 52.3657 32.3742 51.6273 32.3742C48.5257 32.3742 46.8027 30.3065 46.8027 26.6633V24.0224C59.7317 24.5631 70.0973 35.0223 70.4889 47.9893C70.4891 47.9956 70.4942 48.0004 70.5005 48.0004C70.502 48.0004 70.5035 48.0002 70.5051 47.9995C70.5059 47.9991 70.5068 47.9986 70.5077 47.998C70.5075 47.9982 70.5079 47.9978 70.5077 47.998C70.5097 47.996 70.5118 47.9923 70.5121 47.9893C70.8557 36.6141 78.8745 27.169 89.5661 24.6562V37.2918H96.8521V26.7072C96.8521 21.1934 99.2645 18.0919 103.794 18.0919C104.581 18.0919 105.763 18.1903 107.191 18.4857L107.338 12.3319C106.354 12.1349 105.517 12.0857 104.729 12.0857C100.298 12.0857 97.4922 14.7934 96.803 18.3873H96.4582L96.8521 12.3811H89.5661V23.3445C78.8745 20.832 70.8557 11.3867 70.5121 0.0116881ZM68.3431 29.3901L76.0166 24.8912C76.1665 24.8016 76.2906 24.6739 76.3768 24.5212C76.463 24.3685 76.5084 24.1957 76.5084 24.0198C76.5084 23.844 76.463 23.6712 76.3768 23.5184C76.2906 23.3657 76.1665 23.2381 76.0166 23.1484L68.3431 18.6091C68.1889 18.5143 68.0123 18.4632 67.8317 18.4611C67.6513 18.4591 67.4734 18.5062 67.3172 18.5974C67.161 18.6887 67.0321 18.8208 66.9439 18.9797C66.8558 19.1387 66.8117 19.3186 66.8165 19.5007V28.4984C66.8117 28.6804 66.8558 28.8604 66.9439 29.0194C67.0321 29.1783 67.161 29.3105 67.3172 29.4017C67.4734 29.4929 67.6513 29.54 67.8317 29.5378C68.0123 29.5359 68.1889 29.4848 68.3431 29.3901ZM147.521 24.8866C147.521 33.3052 154.511 38.2776 163.373 38.2776C172.234 38.2776 177.896 33.4036 178.388 27.3482L171.496 27.1514C171.053 30.9421 167.705 33.5513 163.471 33.5513C158.45 33.5513 155.004 29.859 155.004 24.7389C155.004 19.619 158.45 15.8775 163.324 15.8775C167.557 15.8775 170.757 18.6344 171.2 22.4251L178.142 22.1299C177.65 15.976 171.84 11.3975 163.324 11.3975C154.413 11.3975 147.521 16.5175 147.521 24.8866ZM195.8 38.2776C186.594 38.2776 179.898 32.7637 179.898 24.8866C179.898 17.059 186.495 11.3975 195.849 11.3975C205.055 11.3975 211.751 16.9114 211.751 24.7882C211.751 32.616 205.154 38.2776 195.8 38.2776ZM195.898 33.7483C200.772 33.7483 204.267 30.0067 204.267 24.8376C204.267 19.5698 200.674 15.779 195.751 15.779C190.877 15.779 187.381 19.5698 187.381 24.7882C187.381 30.0067 190.975 33.7483 195.898 33.7483ZM251.171 11.8876C257.963 11.8876 262.147 16.2199 262.147 23.3583V37.2907H254.862V24.1459C254.862 19.4199 252.547 16.6137 248.707 16.6137C244.671 16.6137 242.308 19.223 242.308 23.6537V37.2907H235.023V24.1459C235.023 19.4199 232.61 16.6137 228.573 16.6137C224.487 16.6137 222.026 19.4199 222.026 24.1952V37.2907H214.739V12.3799H221.928L221.829 18.0906H222.174C223.405 14.2506 226.85 11.8876 231.429 11.8876C236.301 11.8876 239.797 14.1522 241.372 18.0906H241.422C242.703 14.3983 246.395 11.8876 251.171 11.8876ZM146.188 34.1936C146.188 36.8489 143.896 38.7711 140.698 38.7711C137.469 38.7711 135.112 36.8489 135.112 34.1683C135.112 31.4875 137.404 29.5402 140.601 29.5402C143.831 29.5402 146.188 31.4875 146.188 34.1936ZM133.304 12.384L125.181 31.0424L115.827 12.384H108.197L121.194 36.7533H122.72L122.03 38.3286C120.849 41.0362 118.535 42.3163 115.581 42.3163C114.006 42.3163 112.184 42.0209 110.51 41.4301L109.871 46.6978C111.84 47.2394 113.858 47.5348 116.172 47.5348C121.637 47.5348 125.526 44.8762 128.135 38.8701L139.999 12.384H133.304ZM0.179688 25.5792C0.475071 33.3576 7.26885 38.2806 17.9026 38.2806C27.3548 38.2806 34.3456 34.4899 34.3456 27.6469C34.3456 22.3791 30.4563 18.1453 21.9395 17.1115L14.2596 16.1268C10.7642 15.6838 8.89345 13.9607 8.89345 11.4992C8.89345 8.24991 12.0442 6.28069 16.7703 6.28069C22.3334 6.28069 25.9763 9.38223 26.2225 14.2068L33.1639 14.0099C32.9671 6.52684 26.764 1.84992 17.0164 1.84992C7.17038 1.84992 1.55814 6.28069 1.55814 12.533C1.55814 18.5391 6.23502 21.8869 12.7334 22.6745L20.3641 23.6098C24.5488 24.1514 26.961 26.0223 26.961 28.6806C26.961 31.8314 23.6132 33.7514 18.198 33.7514C11.6996 33.7514 7.46578 30.4529 7.31809 25.3821L0.179688 25.5792Z" fill="url(#paint0_linear_4852_50622)"/>
<defs>
<linearGradient id="paint0_linear_4852_50622" x1="0.179688" y1="24.0004" x2="262.147" y2="24.0004" gradientUnits="userSpaceOnUse">
<stop stop-color="#A734EA"/>
<stop offset="1" stop-color="#5E1D84"/>
</linearGradient>
</defs>
</svg>
