<svg width="1170" height="900" viewBox="0 0 1170 900" fill="none" xmlns="http://www.w3.org/2000/svg">
<path d="M646.834 450.288H532.561V543.638H646.834V450.288Z" fill="#374559"/>
<path d="M646.834 173.509H900.945V450.287H646.834V173.509Z" fill="#374559"/>
<path d="M751.788 63.8023H1008.04V450.287H751.788V63.8023Z" fill="#374559"/>
<path d="M553.085 -0.0335083H751.788V63.8031H553.085V-0.0335083Z" fill="#374559"/>
<path d="M31.6582 311.72L31.6582 0L-280.001 -1.36283e-05L-280.001 311.72L31.6582 311.72Z" fill="#374559"/>
<path d="M91.1699 378.678L91.1699 248.881L-27.8471 248.881L-27.8471 378.678L91.1699 378.678Z" fill="#374559"/>
<path d="M91.195 431.026H-211.259V724.533H91.195V431.026Z" fill="#374559"/>
<path d="M156.164 379.409H91.1953V482.638H156.164V379.409Z" fill="#374559"/>
<path d="M931.295 638.237H1169.91V876.9H931.295V638.237Z" fill="#374559"/>
<path d="M291.937 543.638H532.561V971.496H291.937V543.638Z" fill="#374559"/>
</svg>
