<svg width="900" height="1600" viewBox="0 0 900 1600" fill="none" xmlns="http://www.w3.org/2000/svg">
  <g clip-path="url(#clip0_4792_42777)">
    <rect width="1437.13" height="1604.79" transform="translate(-268.871 -2.39551)" fill="url(#paint0_linear_4792_42777)"/>
    <g style="mix-blend-mode:overlay">
      <rect x="427.148" y="-474.06" width="595" height="334" rx="3.5" transform="rotate(45 427.148 -474.06)" stroke="white"/>
      <rect x="865.555" y="-35.6537" width="595" height="334" rx="3.5" transform="rotate(45 865.555 -35.6537)" stroke="white"/>
      <rect x="173.297" y="-220.208" width="595" height="334" rx="3.5" transform="rotate(45 173.297 -220.208)" stroke="white"/>
      <rect x="611.703" y="218.198" width="595" height="334" rx="3.5" transform="rotate(45 611.703 218.198)" stroke="white"/>
      <rect x="1050.11" y="656.604" width="595" height="334" rx="3.5" transform="rotate(45 1050.11 656.604)" stroke="white"/>
      <rect x="-80.5547" y="33.6427" width="595" height="334" rx="3.5" transform="rotate(45 -80.5547 33.6427)" stroke="white"/>
      <rect x="357.852" y="472.049" width="595" height="334" rx="3.5" transform="rotate(45 357.852 472.049)" stroke="white"/>
      <rect x="796.258" y="910.455" width="595" height="334" rx="3.5" transform="rotate(45 796.258 910.455)" stroke="white"/>
      <rect x="-334.406" y="287.494" width="595" height="334" rx="3.5" transform="rotate(45 -334.406 287.494)" stroke="white"/>
      <rect x="104" y="725.9" width="595" height="334" rx="3.5" transform="rotate(45 104 725.9)" stroke="white"/>
      <rect x="542.406" y="1164.31" width="595" height="334" rx="3.5" transform="rotate(45 542.406 1164.31)" stroke="white"/>
      <rect x="-149.852" y="979.752" width="595" height="334" rx="3.5" transform="rotate(45 -149.852 979.752)" stroke="white"/>
      <rect x="288.555" y="1418.16" width="595" height="334" rx="3.5" transform="rotate(45 288.555 1418.16)" stroke="white"/>
    </g>
    <mask id="path-14-inside-1_4792_42777" fill="white">
      <path fill-rule="evenodd" clip-rule="evenodd" d="M449.629 394.041C449.702 394.041 449.762 394.1 449.764 394.173C454.426 548.492 578.677 672.743 732.996 677.405C733.07 677.407 733.129 677.467 733.129 677.541C733.129 677.614 733.07 677.674 732.997 677.676C578.677 682.338 454.426 806.589 449.765 960.908C449.762 960.982 449.702 961.041 449.629 961.041C449.556 961.041 449.495 960.982 449.493 960.908C444.831 806.589 320.581 682.338 166.261 677.676C166.188 677.674 166.129 677.614 166.129 677.54C166.129 677.467 166.188 677.407 166.261 677.405C320.581 672.743 444.831 548.492 449.493 394.173C449.495 394.1 449.556 394.041 449.629 394.041ZM514.809 688.062L424.166 741.204C422.345 742.324 420.258 742.927 418.126 742.952C415.993 742.976 413.894 742.42 412.048 741.342C410.202 740.264 408.679 738.704 407.638 736.826C406.597 734.948 406.077 732.822 406.132 730.672V624.387C406.077 622.236 406.597 620.11 407.638 618.232C408.679 616.355 410.202 614.795 412.048 613.717C413.894 612.639 415.993 612.083 418.126 612.107C420.258 612.131 422.345 612.735 424.166 613.854L514.809 667.475C516.579 668.535 518.046 670.041 519.064 671.846C520.083 673.651 520.619 675.692 520.619 677.769C520.619 679.845 520.083 681.886 519.064 683.691C518.046 685.496 516.579 687.002 514.809 688.062Z"/>
    </mask>
    <path fill-rule="evenodd" clip-rule="evenodd" d="M449.629 394.041C449.702 394.041 449.762 394.1 449.764 394.173C454.426 548.492 578.677 672.743 732.996 677.405C733.07 677.407 733.129 677.467 733.129 677.541C733.129 677.614 733.07 677.674 732.997 677.676C578.677 682.338 454.426 806.589 449.765 960.908C449.762 960.982 449.702 961.041 449.629 961.041C449.556 961.041 449.495 960.982 449.493 960.908C444.831 806.589 320.581 682.338 166.261 677.676C166.188 677.674 166.129 677.614 166.129 677.54C166.129 677.467 166.188 677.407 166.261 677.405C320.581 672.743 444.831 548.492 449.493 394.173C449.495 394.1 449.556 394.041 449.629 394.041ZM514.809 688.062L424.166 741.204C422.345 742.324 420.258 742.927 418.126 742.952C415.993 742.976 413.894 742.42 412.048 741.342C410.202 740.264 408.679 738.704 407.638 736.826C406.597 734.948 406.077 732.822 406.132 730.672V624.387C406.077 622.236 406.597 620.11 407.638 618.232C408.679 616.355 410.202 614.795 412.048 613.717C413.894 612.639 415.993 612.083 418.126 612.107C420.258 612.131 422.345 612.735 424.166 613.854L514.809 667.475C516.579 668.535 518.046 670.041 519.064 671.846C520.083 673.651 520.619 675.692 520.619 677.769C520.619 679.845 520.083 681.886 519.064 683.691C518.046 685.496 516.579 687.002 514.809 688.062Z" fill="url(#paint1_linear_4792_42777)"/>
    <path d="M449.764 394.173L448.765 394.203L448.765 394.203L449.764 394.173ZM732.996 677.405L733.027 676.405L733.027 676.405L732.996 677.405ZM732.997 677.676L732.967 676.677L732.966 676.677L732.997 677.676ZM449.765 960.908L450.764 960.938L450.764 960.938L449.765 960.908ZM449.493 960.908L450.493 960.878L450.493 960.878L449.493 960.908ZM166.261 677.676L166.291 676.677L166.291 676.677L166.261 677.676ZM166.129 677.54L165.129 677.54L165.129 677.54L166.129 677.54ZM166.261 677.405L166.231 676.405L166.231 676.405L166.261 677.405ZM449.493 394.173L448.494 394.142L448.494 394.143L449.493 394.173ZM424.166 741.204L423.66 740.342L423.651 740.347L423.642 740.352L424.166 741.204ZM514.809 688.062L515.314 688.925L515.322 688.92L514.809 688.062ZM418.126 742.952L418.137 743.951L418.137 743.951L418.126 742.952ZM412.048 741.342L411.544 742.205L411.544 742.205L412.048 741.342ZM407.638 736.826L408.512 736.341L408.512 736.341L407.638 736.826ZM406.132 730.672L407.132 730.697L407.132 730.685V730.672H406.132ZM406.132 624.387H407.132V624.374L407.132 624.361L406.132 624.387ZM407.638 618.232L408.512 618.717L408.512 618.717L407.638 618.232ZM412.048 613.717L412.552 614.58L412.552 614.58L412.048 613.717ZM418.126 612.107L418.137 611.107L418.137 611.107L418.126 612.107ZM424.166 613.854L423.642 614.706L423.649 614.71L423.657 614.715L424.166 613.854ZM514.809 667.475L515.322 666.617L515.318 666.615L514.809 667.475ZM519.064 671.846L519.935 671.354L519.935 671.354L519.064 671.846ZM519.064 683.691L519.935 684.183L519.935 684.183L519.064 683.691ZM450.764 394.143C450.746 393.536 450.249 393.041 449.629 393.041V395.041C449.155 395.041 448.779 394.663 448.765 394.203L450.764 394.143ZM733.027 676.405C579.236 671.759 455.41 547.933 450.764 394.143L448.765 394.203C453.443 549.051 578.118 673.727 732.966 678.404L733.027 676.405ZM734.129 677.541C734.129 676.919 733.632 676.424 733.027 676.405L732.966 678.404C732.507 678.39 732.129 678.015 732.129 677.541H734.129ZM733.026 678.676C733.633 678.658 734.129 678.161 734.129 677.541H732.129C732.129 677.066 732.506 676.69 732.967 676.677L733.026 678.676ZM450.764 960.938C455.41 807.148 579.236 683.322 733.027 678.676L732.966 676.677C578.118 681.354 453.443 806.03 448.765 960.878L450.764 960.938ZM449.629 962.041C450.25 962.041 450.746 961.545 450.764 960.938L448.765 960.878C448.779 960.418 449.155 960.041 449.629 960.041V962.041ZM448.494 960.938C448.512 961.545 449.008 962.041 449.629 962.041V960.041C450.103 960.041 450.479 960.418 450.493 960.878L448.494 960.938ZM166.231 678.676C320.022 683.322 443.848 807.148 448.494 960.938L450.493 960.878C445.815 806.03 321.139 681.354 166.291 676.677L166.231 678.676ZM165.129 677.54C165.129 678.161 165.624 678.658 166.231 678.676L166.291 676.677C166.752 676.69 167.129 677.067 167.129 677.541L165.129 677.54ZM166.231 676.405C165.624 676.424 165.129 676.92 165.129 677.54L167.129 677.541C167.129 678.015 166.751 678.39 166.292 678.404L166.231 676.405ZM448.494 394.143C443.848 547.933 320.022 671.759 166.231 676.405L166.291 678.404C321.139 673.727 445.815 549.051 450.493 394.203L448.494 394.143ZM449.629 393.041C449.008 393.041 448.512 393.536 448.494 394.142L450.493 394.203C450.479 394.663 450.103 395.041 449.629 395.041V393.041ZM424.672 742.067L515.314 688.925L514.303 687.199L423.66 740.342L424.672 742.067ZM418.137 743.951C420.451 743.925 422.714 743.27 424.689 742.056L423.642 740.352C421.975 741.377 420.065 741.929 418.114 741.952L418.137 743.951ZM411.544 742.205C413.545 743.374 415.823 743.978 418.137 743.951L418.114 741.952C416.163 741.974 414.242 741.465 412.552 740.478L411.544 742.205ZM406.763 737.311C407.891 739.345 409.542 741.036 411.544 742.205L412.552 740.478C410.863 739.491 409.467 738.062 408.512 736.341L406.763 737.311ZM405.133 730.646C405.072 732.974 405.635 735.277 406.763 737.311L408.512 736.341C407.558 734.62 407.081 732.67 407.132 730.697L405.133 730.646ZM405.132 624.387V730.672H407.132V624.387H405.132ZM406.763 617.747C405.635 619.781 405.072 622.084 405.133 624.413L407.132 624.361C407.081 622.388 407.558 620.439 408.512 618.717L406.763 617.747ZM411.544 612.853C409.542 614.022 407.891 615.713 406.763 617.747L408.512 618.717C409.467 616.996 410.863 615.567 412.552 614.58L411.544 612.853ZM418.137 611.107C415.823 611.081 413.545 611.684 411.544 612.853L412.552 614.58C414.242 613.593 416.163 613.085 418.114 613.107L418.137 611.107ZM424.689 613.002C422.714 611.788 420.451 611.133 418.137 611.107L418.114 613.107C420.065 613.129 421.975 613.681 423.642 614.706L424.689 613.002ZM515.318 666.615L424.675 612.993L423.657 614.715L514.299 668.336L515.318 666.615ZM519.935 671.354C518.831 669.399 517.242 667.767 515.322 666.617L514.295 668.333C515.916 669.304 517.26 670.683 518.193 672.338L519.935 671.354ZM521.619 677.769C521.619 675.52 521.039 673.31 519.935 671.354L518.193 672.338C519.127 673.992 519.619 675.864 519.619 677.769H521.619ZM519.935 684.183C521.039 682.228 521.619 680.017 521.619 677.769H519.619C519.619 679.674 519.127 681.545 518.193 683.2L519.935 684.183ZM515.322 688.92C517.242 687.771 518.831 686.138 519.935 684.183L518.193 683.2C517.26 684.854 515.916 686.234 514.295 687.204L515.322 688.92Z" fill="white" mask="url(#path-14-inside-1_4792_42777)"/>
    <g filter="url(#filter0_d_4792_42777)">
      <path fill-rule="evenodd" clip-rule="evenodd" d="M299.364 1015.07C299.363 1015.05 299.351 1015.04 299.335 1015.04C299.32 1015.04 299.307 1015.05 299.307 1015.07C298.336 1047.19 272.656 1073.11 240.624 1074.45V1056.83H259.651V1045.73H236.356V1045.12C240.746 1043.9 242.942 1039.26 242.942 1032.07V1029.38H224.647V1037.92C224.647 1042.92 222.086 1045.73 217.573 1045.73H210.865V1056.83H222.695V1083.41C222.695 1100.61 232.453 1108.42 246.479 1108.42C251.236 1108.42 255.382 1107.93 259.407 1107.2L259.651 1094.39C257.09 1095 254.407 1095.25 252.577 1095.25C244.893 1095.25 240.624 1090.12 240.624 1081.1V1074.55C272.656 1075.89 298.336 1101.81 299.307 1133.93C299.307 1133.95 299.32 1133.96 299.335 1133.96C299.342 1133.96 299.349 1133.96 299.354 1133.95C299.356 1133.95 299.357 1133.95 299.358 1133.95C299.359 1133.95 299.36 1133.94 299.361 1133.94C299.363 1133.94 299.364 1133.93 299.364 1133.93C300.215 1105.75 320.082 1082.35 346.57 1076.12V1107.43H364.621V1081.21C364.621 1067.54 370.597 1059.86 381.818 1059.86C383.77 1059.86 386.697 1060.1 390.234 1060.84L390.6 1045.59C388.16 1045.1 386.087 1044.98 384.135 1044.98C373.158 1044.98 366.206 1051.69 364.499 1060.59H363.645L364.621 1045.71H346.57V1072.87C320.082 1066.65 300.215 1043.25 299.364 1015.07ZM293.997 1087.85L313.008 1076.71C313.379 1076.48 313.687 1076.17 313.9 1075.79C314.114 1075.41 314.226 1074.98 314.226 1074.55C314.226 1074.11 314.114 1073.68 313.9 1073.31C313.687 1072.93 313.379 1072.61 313.008 1072.39L293.997 1061.14C293.615 1060.91 293.178 1060.78 292.73 1060.78C292.283 1060.77 291.843 1060.89 291.456 1061.11C291.069 1061.34 290.749 1061.67 290.531 1062.06C290.312 1062.45 290.203 1062.9 290.215 1063.35V1085.64C290.203 1086.09 290.312 1086.54 290.531 1086.93C290.749 1087.33 291.069 1087.65 291.456 1087.88C291.843 1088.11 292.283 1088.22 292.73 1088.22C293.178 1088.21 293.615 1088.09 293.997 1087.85Z" fill="white"/>
      <path d="M490.151 1076.7C490.151 1097.55 507.47 1109.87 529.424 1109.87C551.378 1109.87 565.404 1097.8 566.624 1082.79L549.548 1082.31C548.451 1091.7 540.157 1098.16 529.668 1098.16C517.227 1098.16 508.69 1089.01 508.69 1076.33C508.69 1063.64 517.227 1054.37 529.302 1054.37C539.791 1054.37 547.719 1061.21 548.817 1070.6L566.014 1069.86C564.794 1054.62 550.402 1043.28 529.302 1043.28C507.226 1043.28 490.151 1055.96 490.151 1076.7Z" fill="white"/>
      <path fill-rule="evenodd" clip-rule="evenodd" d="M609.761 1109.87C586.953 1109.87 570.366 1096.21 570.366 1076.7C570.366 1057.3 586.709 1043.28 609.883 1043.28C632.691 1043.28 649.278 1056.94 649.278 1076.45C649.278 1095.84 632.935 1109.87 609.761 1109.87ZM610.005 1098.65C622.08 1098.65 630.739 1089.38 630.739 1076.57C630.739 1063.52 621.836 1054.13 609.639 1054.13C597.564 1054.13 588.905 1063.52 588.905 1076.45C588.905 1089.38 597.808 1098.65 610.005 1098.65Z" fill="white"/>
      <path d="M746.939 1044.49C763.77 1044.49 774.137 1055.22 774.137 1072.91V1107.43H756.086V1074.86C756.086 1063.15 750.354 1056.2 740.84 1056.2C730.839 1056.2 724.985 1062.66 724.985 1073.64V1107.43H706.934V1074.86C706.934 1063.15 700.957 1056.2 690.956 1056.2C680.833 1056.2 674.734 1063.15 674.734 1074.98V1107.43H656.683V1045.71H674.491L674.247 1059.86H675.1C678.15 1050.34 686.687 1044.49 698.03 1044.49C710.105 1044.49 718.764 1050.1 722.667 1059.86H722.789C725.961 1050.71 735.108 1044.49 746.939 1044.49Z" fill="white"/>
      <path d="M486.85 1099.75C486.85 1106.33 481.169 1111.09 473.249 1111.09C465.248 1111.09 459.407 1106.33 459.407 1099.69C459.407 1093.05 465.088 1088.22 473.009 1088.22C481.009 1088.22 486.85 1093.05 486.85 1099.75Z" fill="white"/>
      <path d="M454.93 1045.72L434.805 1091.95L411.632 1045.72H392.727L424.926 1106.09H428.707L426.999 1110C424.072 1116.71 418.34 1119.88 411.022 1119.88C407.119 1119.88 402.606 1119.14 398.459 1117.68L396.874 1130.73C401.752 1132.07 406.753 1132.81 412.485 1132.81C426.024 1132.81 435.659 1126.22 442.123 1111.34L471.517 1045.72H454.93Z" fill="white"/>
      <path d="M125.117 1078.41C125.849 1097.68 142.68 1109.88 169.025 1109.88C192.443 1109.88 209.762 1100.49 209.762 1083.53C209.762 1070.48 200.127 1059.99 179.027 1057.43L160 1054.99C151.34 1053.89 146.705 1049.63 146.705 1043.53C146.705 1035.48 154.511 1030.6 166.22 1030.6C180.002 1030.6 189.028 1038.28 189.638 1050.24L206.835 1049.75C206.347 1031.21 190.979 1019.62 166.83 1019.62C142.436 1019.62 128.532 1030.6 128.532 1046.09C128.532 1060.97 140.119 1069.26 156.219 1071.21L175.124 1073.53C185.491 1074.87 191.467 1079.51 191.467 1086.09C191.467 1093.9 183.173 1098.66 169.757 1098.66C153.657 1098.66 143.168 1090.49 142.802 1077.92L125.117 1078.41Z" fill="white"/>
    </g>
  </g>
  <defs>
    <filter id="filter0_d_4792_42777" x="117.395" y="1012.72" width="664.464" height="134.363" filterUnits="userSpaceOnUse" color-interpolation-filters="sRGB">
      <feFlood flood-opacity="0" result="BackgroundImageFix"/>
      <feColorMatrix in="SourceAlpha" type="matrix" values="0 0 0 0 0 0 0 0 0 0 0 0 0 0 0 0 0 0 127 0" result="hardAlpha"/>
      <feOffset dy="5.4054"/>
      <feGaussianBlur stdDeviation="3.861"/>
      <feComposite in2="hardAlpha" operator="out"/>
      <feColorMatrix type="matrix" values="0 0 0 0 0.243137 0 0 0 0 0.0352941 0 0 0 0 0.364706 0 0 0 1 0"/>
      <feBlend mode="normal" in2="BackgroundImageFix" result="effect1_dropShadow_4792_42777"/>
      <feBlend mode="normal" in="SourceGraphic" in2="effect1_dropShadow_4792_42777" result="shape"/>
    </filter>
    <linearGradient id="paint0_linear_4792_42777" x1="718.563" y1="0" x2="718.563" y2="1604.79" gradientUnits="userSpaceOnUse">
      <stop stop-color="#021017"/>
      <stop offset="1" stop-color="#6B21A8"/>
    </linearGradient>
    <linearGradient id="paint1_linear_4792_42777" x1="449.629" y1="394.041" x2="449.629" y2="961.041" gradientUnits="userSpaceOnUse">
      <stop stop-color="#F8FAFC"/>
      <stop offset="1" stop-color="#F8FAFC" stop-opacity="0"/>
    </linearGradient>
    <clipPath id="clip0_4792_42777">
      <rect width="900" height="1600" fill="white"/>
    </clipPath>
  </defs>
</svg>
