<svg width="450" height="142" viewBox="0 0 450 142" fill="none" xmlns="http://www.w3.org/2000/svg">
<path d="M0 99.3427C0.362138 114.154 12.2765 126.068 27.088 126.467C27.0518 111.547 14.9201 99.4151 0 99.3427Z" fill="white"/>
<path d="M56.4693 97.1241C56.1072 82.3127 44.1928 70.3983 29.3813 70.0361C29.4176 84.9562 41.5492 97.0879 56.4693 97.1241Z" fill="white"/>
<path d="M27.1173 70C12.3058 70.3621 0.391435 82.2765 0.0292969 97.088C14.9494 97.0518 27.081 84.9201 27.1173 70Z" fill="white"/>
<path d="M29.378 126.539H28.6899H56.5746V99.3427C41.5821 99.3427 29.378 111.547 29.378 126.539Z" fill="white"/>
<path d="M376.472 88.9282H387.512L372.705 127.479C368.874 137.577 363.289 142 355.171 142C351.794 142 348.937 141.558 346.145 140.821L347.184 131.091C349.521 131.828 352.054 132.197 354.132 132.197C357.964 132.197 361.016 130.354 362.445 126.595L362.964 125.194H360.431L343.677 88.9282H356.34L367.12 114.064L376.472 88.9282Z" fill="white"/>
<path d="M329.421 74.0385H341.5V126.373H329.421V74.0385Z" fill="white"/>
<path d="M300.452 126.373V88.9281H312.531L311.882 97.4786H312.271C313.116 92.4662 316.622 88.4858 322.272 88.4858C323.246 88.4858 324.285 88.5595 325.519 88.8544V100.427C323.506 99.911 321.623 99.7636 320.714 99.7636C315.324 99.7636 312.531 103.891 312.531 111.189V126.373H300.452Z" fill="white"/>
<path d="M274.322 127.847C261.659 127.847 252.567 119.592 252.567 107.651C252.567 95.8569 261.594 87.4539 274.322 87.4539C286.986 87.4539 296.078 95.7832 296.078 107.651C296.078 119.444 287.116 127.847 274.322 127.847ZM274.387 119.297C279.842 119.297 283.674 114.432 283.674 107.651C283.674 100.648 279.713 95.7832 274.258 95.7832C268.867 95.7832 264.971 100.648 264.971 107.577C264.971 114.432 268.932 119.297 274.387 119.297Z" fill="white"/>
<path d="M234.332 88.191C243.294 88.191 248.749 94.6775 248.749 105.366V126.373H236.67V106.84C236.67 100.722 234.072 97.11 229.591 97.11C225.045 97.11 222.383 100.574 222.383 106.471V126.373H210.304V74.0385H222.383V96.8151H222.448C224.201 91.5079 228.617 88.191 234.332 88.191Z" fill="white"/>
<path d="M198.687 126.889C190.829 126.889 185.18 122.098 185.18 111.115V97.3311H179.075V88.9281H182.452C184.855 88.9281 186.154 87.2327 186.154 84.2106V79.1982H198.363V80.2302C198.363 84.874 197.129 87.7487 194.791 88.6332V88.9281H206.09V97.3311H197.129V109.346C197.129 114.137 199.142 116.865 202.779 116.865C203.558 116.865 205.051 116.865 206.09 116.643V126.3C203.883 126.668 201.35 126.889 198.687 126.889Z" fill="white"/>
<path d="M175.014 114.064L175.209 126.373H163.324L163.259 118.191H162.644L162.935 117.823C161.376 123.646 157.155 127.11 151.051 127.11C142.284 127.11 136.569 120.403 136.569 109.788V88.9282H148.648V108.093C148.648 114.506 151.18 118.191 155.791 118.191C160.207 118.191 162.935 114.874 162.935 108.683V88.9282H175.014V114.064Z" fill="white"/>
<path d="M122.955 126.373L118.279 113.547H97.2386L92.5628 126.373H79.5747L99.4465 74.7755H116.201L136.073 126.373H122.955ZM100.421 104.923H115.097L107.759 84.9476L100.421 104.923Z" fill="white"/>
<path d="M124.646 36.672C122.006 36.672 119.654 36.24 117.542 35.328C115.43 34.464 113.654 33.216 112.214 31.584C110.726 29.952 109.574 28.032 108.806 25.824C107.99 23.616 107.606 21.216 107.606 18.528C107.606 15.936 107.99 13.488 108.806 11.232C109.574 9.024 110.726 7.104 112.214 5.472C113.702 3.84 115.478 2.592 117.59 1.68C119.702 0.767999 122.054 0.287999 124.646 0.287999C128.39 0.287999 131.51 1.2 134.102 2.976C136.694 4.8 138.422 7.296 139.334 10.512L134.006 11.376C133.142 9.264 131.942 7.68 130.358 6.576C128.774 5.52 126.806 4.944 124.454 4.944C122.63 4.944 121.046 5.328 119.654 6C118.262 6.72 117.11 7.68 116.15 8.88C115.19 10.128 114.422 11.568 113.942 13.2C113.414 14.832 113.174 16.608 113.174 18.48C113.174 20.448 113.414 22.272 113.99 23.904C114.518 25.584 115.286 27.024 116.294 28.224C117.302 29.472 118.502 30.432 119.942 31.104C121.382 31.776 122.966 32.112 124.79 32.112C127.094 32.112 129.014 31.536 130.598 30.288C132.182 29.04 133.334 27.408 134.102 25.392L139.526 26.208C138.566 29.424 136.838 31.968 134.294 33.84C131.702 35.76 128.486 36.672 124.646 36.672ZM144.675 15.36V12.864C144.675 12.192 144.627 11.52 144.627 10.752H149.427V12.096V13.344C149.427 13.824 149.379 14.256 149.379 14.592H149.475C150.195 13.152 151.155 12.096 152.403 11.328C153.651 10.608 155.139 10.224 156.867 10.224C157.395 10.224 157.875 10.272 158.259 10.368L158.115 15.216C157.587 15.12 157.011 15.024 156.435 15.024C154.035 15.024 152.259 15.744 151.203 17.136C150.147 18.576 149.619 20.688 149.619 23.52V36H144.675V15.36ZM173.435 36.624C171.419 36.624 169.643 36.336 168.059 35.712C166.475 35.088 165.131 34.176 164.027 33.024C162.923 31.872 162.059 30.528 161.483 28.896C160.907 27.264 160.619 25.488 160.619 23.472C160.619 21.552 160.907 19.776 161.483 18.144C162.059 16.512 162.923 15.12 164.027 13.92C165.083 12.72 166.427 11.76 168.011 11.088C169.547 10.416 171.323 10.08 173.243 10.08C175.355 10.08 177.227 10.464 178.763 11.232C180.299 12 181.547 13.056 182.555 14.352C183.515 15.696 184.235 17.232 184.715 19.008C185.195 20.784 185.435 22.704 185.435 24.72H165.611C165.611 25.872 165.851 26.88 166.235 27.792C166.619 28.752 167.195 29.568 167.915 30.24C168.587 30.96 169.403 31.488 170.363 31.872C171.323 32.256 172.379 32.448 173.531 32.448C174.491 32.448 175.403 32.352 176.219 32.112C176.987 31.872 177.707 31.536 178.331 31.152C178.907 30.768 179.435 30.288 179.867 29.808C180.299 29.328 180.683 28.8 180.971 28.272L185.243 30.096C184.235 31.968 182.747 33.504 180.779 34.752C178.811 36 176.363 36.624 173.435 36.624ZM180.203 20.88C180.107 20.016 179.915 19.2 179.627 18.384C179.291 17.568 178.859 16.848 178.283 16.224C177.707 15.6 176.987 15.072 176.123 14.688C175.259 14.304 174.299 14.112 173.195 14.112C172.139 14.112 171.131 14.304 170.267 14.64C169.403 15.024 168.635 15.504 168.011 16.128C167.339 16.752 166.811 17.472 166.427 18.288C166.043 19.104 165.755 19.968 165.659 20.88H180.203ZM198.423 36.432C195.687 36.432 193.479 35.808 191.847 34.512C190.167 33.216 189.351 31.392 189.351 29.04C189.351 27.792 189.543 26.688 190.023 25.824C190.503 24.96 191.127 24.24 191.991 23.664C192.807 23.088 193.815 22.608 194.967 22.224C196.119 21.888 197.415 21.552 198.855 21.264L203.607 20.352C204.087 20.256 204.519 20.208 204.855 20.112C205.191 20.064 205.479 19.968 205.671 19.872C205.863 19.776 206.007 19.584 206.103 19.344C206.199 19.152 206.247 18.816 206.247 18.432C206.247 17.184 205.767 16.176 204.807 15.408C203.847 14.64 202.551 14.256 200.871 14.256C198.999 14.256 197.607 14.688 196.695 15.552C195.783 16.416 195.255 17.52 195.063 18.912L190.215 18.528C190.311 17.28 190.695 16.176 191.271 15.168C191.847 14.16 192.567 13.296 193.527 12.576C194.439 11.856 195.495 11.28 196.743 10.896C197.991 10.512 199.335 10.32 200.871 10.32C204.135 10.32 206.679 11.088 208.503 12.576C210.279 14.112 211.191 16.512 211.191 19.776V34.896C211.191 35.136 211.191 35.328 211.191 35.52C211.191 35.712 211.239 35.904 211.239 36H206.583V35.04V34.368C206.583 34.176 206.583 34.032 206.631 33.84C206.631 33.696 206.631 33.552 206.679 33.36H206.535C205.623 34.32 204.519 35.088 203.223 35.616C201.879 36.192 200.295 36.432 198.423 36.432ZM199.575 32.832C201.687 32.832 203.367 32.208 204.567 30.96C205.719 29.712 206.343 28.032 206.343 25.872V24.816C206.343 24.672 206.343 24.48 206.343 24.288C206.343 24.096 206.391 23.904 206.439 23.712C206.055 23.856 205.671 23.952 205.239 24C204.807 24.096 204.375 24.144 203.943 24.24L200.343 24.96C199.335 25.152 198.471 25.344 197.751 25.536C197.031 25.728 196.455 25.968 195.975 26.256C195.495 26.544 195.111 26.928 194.919 27.312C194.679 27.744 194.583 28.272 194.583 28.944C194.583 30.192 195.015 31.152 195.927 31.824C196.791 32.496 198.039 32.832 199.575 32.832ZM222.209 36C221.105 35.424 220.385 34.512 220.049 33.36C219.665 32.208 219.521 30.528 219.521 28.368V14.832H215.297V10.752H219.521V3.84H224.513V10.752H229.697V14.832H224.513V26.736C224.513 28.224 224.561 29.424 224.753 30.384C224.945 31.344 225.185 32.16 225.569 32.736C225.905 33.36 226.337 33.84 226.817 34.128C227.297 34.464 227.921 34.752 228.593 34.944V36H222.209ZM245.06 36.624C243.044 36.624 241.268 36.336 239.684 35.712C238.1 35.088 236.756 34.176 235.652 33.024C234.548 31.872 233.684 30.528 233.108 28.896C232.532 27.264 232.244 25.488 232.244 23.472C232.244 21.552 232.532 19.776 233.108 18.144C233.684 16.512 234.548 15.12 235.652 13.92C236.708 12.72 238.052 11.76 239.636 11.088C241.172 10.416 242.948 10.08 244.868 10.08C246.98 10.08 248.852 10.464 250.388 11.232C251.924 12 253.172 13.056 254.18 14.352C255.14 15.696 255.86 17.232 256.34 19.008C256.82 20.784 257.06 22.704 257.06 24.72H237.236C237.236 25.872 237.476 26.88 237.86 27.792C238.244 28.752 238.82 29.568 239.54 30.24C240.212 30.96 241.028 31.488 241.988 31.872C242.948 32.256 244.004 32.448 245.156 32.448C246.116 32.448 247.028 32.352 247.844 32.112C248.612 31.872 249.332 31.536 249.956 31.152C250.532 30.768 251.06 30.288 251.492 29.808C251.924 29.328 252.308 28.8 252.596 28.272L256.868 30.096C255.86 31.968 254.372 33.504 252.404 34.752C250.436 36 247.988 36.624 245.06 36.624ZM251.828 20.88C251.732 20.016 251.54 19.2 251.252 18.384C250.916 17.568 250.484 16.848 249.908 16.224C249.332 15.6 248.612 15.072 247.748 14.688C246.884 14.304 245.924 14.112 244.82 14.112C243.764 14.112 242.756 14.304 241.892 14.64C241.028 15.024 240.26 15.504 239.636 16.128C238.964 16.752 238.436 17.472 238.052 18.288C237.668 19.104 237.38 19.968 237.284 20.88H251.828ZM272.688 36.576C270.96 36.576 269.424 36.288 267.984 35.664C266.544 35.04 265.344 34.176 264.336 33.024C263.28 31.872 262.512 30.528 261.936 28.896C261.36 27.264 261.072 25.488 261.072 23.472C261.072 21.552 261.36 19.728 261.936 18.096C262.512 16.464 263.28 15.072 264.336 13.872C265.344 12.72 266.544 11.808 267.984 11.136C269.424 10.464 270.96 10.128 272.688 10.128C274.608 10.128 276.24 10.512 277.632 11.232C279.024 12 280.176 12.96 281.04 14.208C280.992 13.584 280.992 12.96 280.992 12.336V10.512V0.959999H286.032V32.352V34.368C286.032 35.088 286.032 35.616 286.08 36H281.232V34.848V33.696C281.232 33.264 281.232 32.88 281.28 32.496H281.232C280.272 33.84 279.072 34.896 277.68 35.568C276.24 36.24 274.608 36.576 272.688 36.576ZM273.6 32.4C274.752 32.4 275.76 32.208 276.72 31.728C277.68 31.296 278.448 30.672 279.12 29.904C279.792 29.136 280.272 28.176 280.656 27.072C280.992 25.968 281.184 24.72 281.184 23.376C281.184 22.08 280.992 20.88 280.656 19.776C280.272 18.672 279.792 17.712 279.12 16.944C278.448 16.176 277.68 15.552 276.768 15.12C275.808 14.688 274.8 14.448 273.648 14.448C272.496 14.448 271.44 14.688 270.576 15.12C269.664 15.6 268.896 16.224 268.272 16.992C267.6 17.808 267.12 18.768 266.784 19.872C266.448 20.976 266.304 22.176 266.304 23.472C266.304 24.816 266.448 26.016 266.784 27.072C267.12 28.176 267.6 29.136 268.224 29.904C268.848 30.72 269.616 31.344 270.528 31.776C271.44 32.208 272.448 32.4 273.6 32.4ZM312.47 36.432C309.734 36.432 307.526 35.808 305.894 34.512C304.214 33.216 303.398 31.392 303.398 29.04C303.398 27.792 303.59 26.688 304.07 25.824C304.55 24.96 305.174 24.24 306.038 23.664C306.854 23.088 307.862 22.608 309.014 22.224C310.166 21.888 311.462 21.552 312.902 21.264L317.654 20.352C318.134 20.256 318.566 20.208 318.902 20.112C319.238 20.064 319.526 19.968 319.718 19.872C319.91 19.776 320.054 19.584 320.15 19.344C320.246 19.152 320.294 18.816 320.294 18.432C320.294 17.184 319.814 16.176 318.854 15.408C317.894 14.64 316.598 14.256 314.918 14.256C313.046 14.256 311.654 14.688 310.742 15.552C309.83 16.416 309.302 17.52 309.11 18.912L304.262 18.528C304.358 17.28 304.742 16.176 305.318 15.168C305.894 14.16 306.614 13.296 307.574 12.576C308.486 11.856 309.542 11.28 310.79 10.896C312.038 10.512 313.382 10.32 314.918 10.32C318.182 10.32 320.726 11.088 322.55 12.576C324.326 14.112 325.238 16.512 325.238 19.776V34.896C325.238 35.136 325.238 35.328 325.238 35.52C325.238 35.712 325.286 35.904 325.286 36H320.63V35.04V34.368C320.63 34.176 320.63 34.032 320.678 33.84C320.678 33.696 320.678 33.552 320.726 33.36H320.582C319.67 34.32 318.566 35.088 317.27 35.616C315.926 36.192 314.342 36.432 312.47 36.432ZM313.622 32.832C315.734 32.832 317.414 32.208 318.614 30.96C319.766 29.712 320.39 28.032 320.39 25.872V24.816C320.39 24.672 320.39 24.48 320.39 24.288C320.39 24.096 320.438 23.904 320.486 23.712C320.102 23.856 319.718 23.952 319.286 24C318.854 24.096 318.422 24.144 317.99 24.24L314.39 24.96C313.382 25.152 312.518 25.344 311.798 25.536C311.078 25.728 310.502 25.968 310.022 26.256C309.542 26.544 309.158 26.928 308.966 27.312C308.726 27.744 308.63 28.272 308.63 28.944C308.63 30.192 309.062 31.152 309.974 31.824C310.838 32.496 312.086 32.832 313.622 32.832ZM336.256 36C335.152 35.424 334.432 34.512 334.096 33.36C333.712 32.208 333.568 30.528 333.568 28.368V14.832H329.344V10.752H333.568V3.84H338.56V10.752H343.744V14.832H338.56V26.736C338.56 28.224 338.608 29.424 338.8 30.384C338.992 31.344 339.232 32.16 339.616 32.736C339.952 33.36 340.384 33.84 340.864 34.128C341.344 34.464 341.968 34.752 342.64 34.944V36H336.256Z" fill="white"/>
<path d="M379.857 114.048H392.242V126H379.857V114.048ZM407.539 126.576C405.523 126.576 403.651 126.36 401.995 125.856C400.267 125.352 398.827 124.632 397.603 123.624C396.379 122.616 395.443 121.464 394.795 120.024C394.075 118.584 393.787 117 393.787 115.128C393.787 113.472 394.003 112.032 394.579 110.88C395.083 109.728 395.875 108.648 396.883 107.784C397.891 106.92 399.115 106.2 400.627 105.624C402.067 105.048 403.795 104.544 405.811 104.112C406.963 103.824 407.971 103.608 408.835 103.464C409.699 103.32 410.419 103.176 411.139 103.032C411.787 102.888 412.363 102.816 412.939 102.672L414.523 102.384C415.891 102.168 416.827 101.952 417.259 101.664C417.691 101.448 417.907 100.944 417.907 100.08C417.907 98.784 417.403 97.704 416.395 96.912C415.387 96.192 413.947 95.76 412.075 95.76C410.059 95.76 408.475 96.264 407.467 97.272C406.459 98.28 405.883 99.648 405.811 101.232L394.939 100.656C395.083 98.784 395.587 97.056 396.451 95.472C397.315 93.888 398.467 92.52 399.979 91.296C401.491 90.144 403.291 89.208 405.451 88.488C407.611 87.84 409.987 87.48 412.651 87.48C418.123 87.48 422.227 88.704 424.963 91.08C427.699 93.528 429.067 97.272 429.067 102.456V124.2C429.067 124.632 429.067 125.064 429.067 125.352C429.067 125.64 429.139 125.856 429.139 126H419.419C419.347 125.712 419.347 125.496 419.347 125.208V124.272V122.832H419.203C418.051 123.984 416.539 124.92 414.667 125.568C412.795 126.288 410.419 126.576 407.539 126.576ZM410.491 119.16C412.723 119.16 414.523 118.584 415.963 117.36C417.403 116.208 418.123 114.336 418.123 111.816V110.736V109.872C418.123 109.512 418.123 109.224 418.267 109.008C417.547 109.296 416.755 109.44 416.035 109.584C415.243 109.728 414.379 109.872 413.443 110.088L410.059 110.88C408.187 111.312 406.891 111.744 406.099 112.32C405.307 112.896 404.947 113.76 404.947 114.984C404.947 116.424 405.379 117.432 406.387 118.152C407.395 118.872 408.763 119.16 410.491 119.16ZM433.324 88.128H445.276V126H433.324V88.128ZM433.324 73.44H445.276V83.448H433.324V73.44Z" fill="white"/>
</svg>
