<svg width="388" height="72" viewBox="0 0 388 72" fill="none" xmlns="http://www.w3.org/2000/svg">
<path d="M0 29.3427C0.362138 44.1541 12.2765 56.0684 27.088 56.4668C27.0518 41.5467 14.9201 29.4151 0 29.3427Z" fill="white"/>
<path d="M56.4693 27.1241C56.1072 12.3127 44.1928 0.398271 29.3813 0.0361328C29.4176 14.9562 41.5492 27.0879 56.4693 27.1241Z" fill="white"/>
<path d="M27.1173 0C12.3058 0.362138 0.391435 12.2765 0.0292969 27.088C14.9494 27.0518 27.081 14.9201 27.1173 0Z" fill="white"/>
<path d="M29.378 56.5391H28.6899H56.5746V29.3427C41.5821 29.3427 29.378 41.5466 29.378 56.5391Z" fill="white"/>
<path d="M376.662 18.9282H387.702L372.895 57.479C369.064 67.5774 363.479 72.0001 355.361 72.0001C351.984 72.0001 349.127 71.5578 346.334 70.8207L347.373 61.0909C349.711 61.828 352.244 62.1965 354.322 62.1965C358.154 62.1965 361.206 60.3538 362.635 56.5945L363.154 55.194H360.621L343.867 18.9282H356.53L367.31 44.0637L376.662 18.9282Z" fill="white"/>
<path d="M329.611 4.03845H341.69V56.3732H329.611V4.03845Z" fill="white"/>
<path d="M300.642 56.3733V18.9281H312.721L312.072 27.4786H312.461C313.306 22.4662 316.812 18.4858 322.462 18.4858C323.436 18.4858 324.475 18.5595 325.709 18.8544V30.427C323.696 29.911 321.813 29.7636 320.904 29.7636C315.514 29.7636 312.721 33.8914 312.721 41.1888V56.3733H300.642Z" fill="white"/>
<path d="M274.512 57.8475C261.849 57.8475 252.757 49.5918 252.757 37.6507C252.757 25.8569 261.784 17.4539 274.512 17.4539C287.176 17.4539 296.268 25.7832 296.268 37.6507C296.268 49.4444 287.306 57.8475 274.512 57.8475ZM274.577 49.297C280.032 49.297 283.864 44.4321 283.864 37.6507C283.864 30.6481 279.903 25.7832 274.447 25.7832C269.057 25.7832 265.161 30.6481 265.161 37.5769C265.161 44.4321 269.122 49.297 274.577 49.297Z" fill="white"/>
<path d="M234.522 18.191C243.483 18.191 248.938 24.6775 248.938 35.3656V56.3732H236.86V36.8398C236.86 30.7218 234.262 27.11 229.781 27.11C225.235 27.11 222.573 30.5744 222.573 36.4713V56.3732H210.494V4.03845H222.573V26.8151H222.638C224.391 21.5079 228.807 18.191 234.522 18.191Z" fill="white"/>
<path d="M198.877 56.8892C191.019 56.8892 185.37 52.098 185.37 41.1151V27.3311H179.265V18.9281H182.642C185.045 18.9281 186.344 17.2327 186.344 14.2106V9.19824H198.552V10.2302C198.552 14.874 197.319 17.7487 194.981 18.6332V18.9281H206.28V27.3311H197.319V39.346C197.319 44.1372 199.332 46.8645 202.968 46.8645C203.748 46.8645 205.241 46.8645 206.28 46.6434V56.2995C204.072 56.6681 201.54 56.8892 198.877 56.8892Z" fill="white"/>
<path d="M175.204 44.0637L175.398 56.3734H163.514L163.449 48.1915H162.834L163.125 47.8229C161.566 53.6461 157.345 57.1105 151.241 57.1105C142.474 57.1105 136.759 50.4028 136.759 39.7884V18.9282H148.838V38.0931C148.838 44.5059 151.37 48.1915 155.981 48.1915C160.397 48.1915 163.125 44.8745 163.125 38.6828V18.9282H175.204V44.0637Z" fill="white"/>
<path d="M123.145 56.3732L118.469 43.5475H97.4285L92.7528 56.3732H79.7646L99.6365 4.77551H116.391L136.263 56.3732H123.145ZM100.611 34.9233H115.287L107.949 14.9476L100.611 34.9233Z" fill="white"/>
</svg>
