<svg width="1601" height="900" viewBox="0 0 1601 900" fill="none" xmlns="http://www.w3.org/2000/svg">
  <g clip-path="url(#clip0_4792_42869)">
    <rect width="1601" height="1604" transform="translate(-0.871094 -2)" fill="url(#paint0_linear_4792_42869)"/>
    <g style="mix-blend-mode:overlay">
      <rect x="427.277" y="-474.06" width="595" height="334" rx="3.5" transform="rotate(45 427.277 -474.06)" stroke="white"/>
      <rect x="865.684" y="-35.6537" width="595" height="334" rx="3.5" transform="rotate(45 865.684 -35.6537)" stroke="white"/>
      <rect x="1304.09" y="402.753" width="595" height="334" rx="3.5" transform="rotate(45 1304.09 402.753)" stroke="white"/>
      <rect x="1742.5" y="841.159" width="595" height="334" rx="3.5" transform="rotate(45 1742.5 841.159)" stroke="white"/>
      <rect x="173.426" y="-220.208" width="595" height="334" rx="3.5" transform="rotate(45 173.426 -220.208)" stroke="white"/>
      <rect x="611.832" y="218.198" width="595" height="334" rx="3.5" transform="rotate(45 611.832 218.198)" stroke="white"/>
      <rect x="1050.24" y="656.604" width="595" height="334" rx="3.5" transform="rotate(45 1050.24 656.604)" stroke="white"/>
      <rect x="-80.4258" y="33.6427" width="595" height="334" rx="3.5" transform="rotate(45 -80.4258 33.6427)" stroke="white"/>
      <rect x="357.98" y="472.049" width="595" height="334" rx="3.5" transform="rotate(45 357.98 472.049)" stroke="white"/>
      <rect x="-334.277" y="287.494" width="595" height="334" rx="3.5" transform="rotate(45 -334.277 287.494)" stroke="white"/>
      <rect x="104.129" y="725.9" width="595" height="334" rx="3.5" transform="rotate(45 104.129 725.9)" stroke="white"/>
    </g>
    <mask id="path-12-inside-1_4792_42869" fill="white">
      <path fill-rule="evenodd" clip-rule="evenodd" d="M465.281 178.539C465.351 178.539 465.409 178.595 465.411 178.665C469.858 325.887 588.394 444.423 735.616 448.871C735.686 448.873 735.742 448.93 735.742 449C735.742 449.07 735.686 449.127 735.616 449.129C588.394 453.577 469.858 572.113 465.411 719.335C465.409 719.405 465.351 719.461 465.281 719.461C465.211 719.461 465.154 719.405 465.152 719.335C460.704 572.113 342.168 453.577 194.947 449.129C194.877 449.127 194.82 449.07 194.82 449C194.82 448.93 194.877 448.873 194.947 448.871C342.168 444.423 460.704 325.887 465.152 178.665C465.154 178.595 465.211 178.539 465.281 178.539ZM527.465 459.038L440.991 509.736C439.253 510.804 437.263 511.38 435.228 511.403C433.194 511.426 431.191 510.895 429.43 509.867C427.67 508.838 426.216 507.35 425.223 505.559C424.23 503.768 423.734 501.739 423.787 499.688V398.291C423.734 396.239 424.23 394.211 425.223 392.42C426.216 390.628 427.67 389.14 429.43 388.112C431.191 387.083 433.194 386.553 435.228 386.576C437.263 386.599 439.253 387.175 440.991 388.243L527.465 439.398C529.154 440.409 530.553 441.846 531.525 443.568C532.496 445.289 533.007 447.236 533.007 449.218C533.007 451.199 532.496 453.146 531.525 454.868C530.553 456.59 529.154 458.027 527.465 459.038Z"/>
    </mask>
    <path fill-rule="evenodd" clip-rule="evenodd" d="M465.281 178.539C465.351 178.539 465.409 178.595 465.411 178.665C469.858 325.887 588.394 444.423 735.616 448.871C735.686 448.873 735.742 448.93 735.742 449C735.742 449.07 735.686 449.127 735.616 449.129C588.394 453.577 469.858 572.113 465.411 719.335C465.409 719.405 465.351 719.461 465.281 719.461C465.211 719.461 465.154 719.405 465.152 719.335C460.704 572.113 342.168 453.577 194.947 449.129C194.877 449.127 194.82 449.07 194.82 449C194.82 448.93 194.877 448.873 194.947 448.871C342.168 444.423 460.704 325.887 465.152 178.665C465.154 178.595 465.211 178.539 465.281 178.539ZM527.465 459.038L440.991 509.736C439.253 510.804 437.263 511.38 435.228 511.403C433.194 511.426 431.191 510.895 429.43 509.867C427.67 508.838 426.216 507.35 425.223 505.559C424.23 503.768 423.734 501.739 423.787 499.688V398.291C423.734 396.239 424.23 394.211 425.223 392.42C426.216 390.628 427.67 389.14 429.43 388.112C431.191 387.083 433.194 386.553 435.228 386.576C437.263 386.599 439.253 387.175 440.991 388.243L527.465 439.398C529.154 440.409 530.553 441.846 531.525 443.568C532.496 445.289 533.007 447.236 533.007 449.218C533.007 451.199 532.496 453.146 531.525 454.868C530.553 456.59 529.154 458.027 527.465 459.038Z" fill="url(#paint1_linear_4792_42869)"/>
    <path d="M465.411 178.665L464.457 178.694L464.457 178.694L465.411 178.665ZM735.616 448.871L735.587 449.824L735.587 449.824L735.616 448.871ZM735.616 449.129L735.587 448.176L735.587 448.176L735.616 449.129ZM465.411 719.335L464.457 719.306L464.457 719.306L465.411 719.335ZM465.152 719.335L466.105 719.306L466.105 719.306L465.152 719.335ZM194.947 449.129L194.975 448.176L194.975 448.176L194.947 449.129ZM194.82 449L193.866 449L193.866 449L194.82 449ZM194.947 448.871L194.975 449.824L194.975 449.824L194.947 448.871ZM465.152 178.665L466.105 178.694L466.105 178.694L465.152 178.665ZM440.991 509.736L440.508 508.913L440.5 508.918L440.491 508.923L440.991 509.736ZM527.465 459.038L527.947 459.861L527.955 459.856L527.465 459.038ZM429.43 509.867L429.912 509.043L429.912 509.043L429.43 509.867ZM425.223 505.559L424.389 506.022L424.389 506.022L425.223 505.559ZM423.787 499.688L424.74 499.712L424.741 499.7V499.688H423.787ZM423.787 398.291H424.741V398.279L424.74 398.266L423.787 398.291ZM425.223 392.42L424.389 391.957L424.389 391.957L425.223 392.42ZM429.43 388.112L429.912 388.936L429.912 388.936L429.43 388.112ZM440.991 388.243L440.491 389.056L440.498 389.06L440.505 389.064L440.991 388.243ZM527.465 439.398L527.955 438.579L527.95 438.577L527.465 439.398ZM531.525 443.568L530.694 444.036L530.694 444.036L531.525 443.568ZM531.525 454.868L530.694 454.399L530.694 454.399L531.525 454.868ZM466.364 178.637C466.347 178.058 465.873 177.585 465.281 177.585V179.493C464.829 179.493 464.47 179.133 464.457 178.694L466.364 178.637ZM735.645 447.917C588.927 443.485 470.796 325.354 466.364 178.636L464.457 178.694C468.92 326.42 587.861 445.362 735.587 449.824L735.645 447.917ZM736.696 449C736.696 448.407 736.223 447.934 735.645 447.917L735.587 449.824C735.149 449.811 734.788 449.453 734.788 449H736.696ZM735.645 450.083C736.224 450.066 736.696 449.592 736.696 449H734.788C734.788 448.548 735.148 448.189 735.587 448.176L735.645 450.083ZM466.364 719.364C470.796 572.646 588.927 454.515 735.645 450.083L735.587 448.176C587.861 452.638 468.92 571.58 464.457 719.306L466.364 719.364ZM465.281 720.415C465.874 720.415 466.347 719.942 466.364 719.363L464.457 719.306C464.47 718.867 464.829 718.507 465.281 718.507V720.415ZM464.198 719.363C464.216 719.943 464.689 720.415 465.281 720.415V718.507C465.733 718.507 466.092 718.867 466.105 719.306L464.198 719.363ZM194.918 450.083C341.635 454.515 459.766 572.646 464.198 719.364L466.105 719.306C461.643 571.58 342.701 452.638 194.975 448.176L194.918 450.083ZM193.866 449C193.866 449.592 194.339 450.066 194.918 450.083L194.975 448.176C195.415 448.189 195.774 448.548 195.774 449L193.866 449ZM194.918 447.917C194.339 447.934 193.866 448.408 193.866 449L195.774 449C195.774 449.452 195.414 449.811 194.975 449.824L194.918 447.917ZM464.198 178.636C459.766 325.354 341.635 443.485 194.918 447.917L194.975 449.824C342.701 445.362 461.643 326.42 466.105 178.694L464.198 178.636ZM465.281 177.585C464.689 177.585 464.216 178.057 464.198 178.637L466.105 178.694C466.092 179.133 465.733 179.493 465.281 179.493V177.585ZM441.473 510.559L527.947 459.861L526.982 458.215L440.508 508.913L441.473 510.559ZM435.239 512.357C437.447 512.332 439.606 511.707 441.49 510.549L440.491 508.923C438.901 509.901 437.079 510.428 435.218 510.449L435.239 512.357ZM428.949 510.691C430.859 511.806 433.032 512.382 435.239 512.357L435.218 510.449C433.356 510.47 431.523 509.984 429.912 509.043L428.949 510.691ZM424.389 506.022C425.465 507.962 427.04 509.575 428.949 510.691L429.912 509.043C428.3 508.101 426.968 506.738 426.057 505.096L424.389 506.022ZM422.833 499.663C422.776 501.884 423.313 504.081 424.389 506.022L426.057 505.096C425.147 503.454 424.692 501.594 424.74 499.712L422.833 499.663ZM422.833 398.291V499.688H424.741V398.291H422.833ZM424.389 391.957C423.313 393.898 422.776 396.094 422.833 398.316L424.74 398.266C424.692 396.384 425.147 394.524 426.057 392.882L424.389 391.957ZM428.949 387.288C427.04 388.403 425.465 390.017 424.389 391.957L426.057 392.882C426.968 391.24 428.3 389.877 429.912 388.936L428.949 387.288ZM435.239 385.622C433.032 385.597 430.859 386.173 428.949 387.288L429.912 388.936C431.523 387.994 433.356 387.509 435.218 387.53L435.239 385.622ZM441.49 387.43C439.606 386.272 437.447 385.647 435.239 385.622L435.218 387.53C437.079 387.551 438.901 388.078 440.491 389.056L441.49 387.43ZM527.95 438.577L441.477 387.422L440.505 389.064L526.979 440.219L527.95 438.577ZM532.355 443.099C531.303 441.233 529.786 439.676 527.955 438.579L526.975 440.216C528.521 441.142 529.803 442.458 530.694 444.036L532.355 443.099ZM533.961 449.218C533.961 447.072 533.408 444.964 532.355 443.099L530.694 444.036C531.585 445.615 532.053 447.4 532.053 449.218H533.961ZM532.355 455.337C533.408 453.472 533.961 451.363 533.961 449.218H532.053C532.053 451.035 531.585 452.821 530.694 454.399L532.355 455.337ZM527.955 459.856C529.786 458.76 531.303 457.202 532.355 455.337L530.694 454.399C529.803 455.977 528.521 457.293 526.975 458.219L527.955 459.856Z" fill="white" mask="url(#path-12-inside-1_4792_42869)"/>
    <g filter="url(#filter0_d_4792_42869)">
      <path fill-rule="evenodd" clip-rule="evenodd" d="M953.494 392.301C953.494 392.287 953.482 392.275 953.467 392.275C953.452 392.275 953.44 392.287 953.44 392.301C952.514 422.949 928.014 447.67 897.456 448.948V432.138H915.608V421.55H893.384V420.968C897.573 419.804 899.667 415.383 899.667 408.517V405.958H882.214V414.103C882.214 418.873 879.77 421.55 875.465 421.55H869.065V432.138H880.352V457.504C880.352 473.911 889.661 481.358 903.042 481.358C907.58 481.358 911.536 480.892 915.375 480.194L915.608 467.976C913.165 468.558 910.605 468.791 908.859 468.791C901.529 468.791 897.456 463.904 897.456 455.293V449.051C928.014 450.329 952.514 475.05 953.44 505.698C953.44 505.712 953.452 505.724 953.467 505.724C953.474 505.724 953.48 505.722 953.485 505.717C953.486 505.716 953.488 505.715 953.489 505.713C953.49 505.711 953.491 505.71 953.492 505.708C953.493 505.705 953.494 505.701 953.494 505.698C954.306 478.813 973.259 456.489 998.529 450.55V480.414H1015.75V455.397C1015.75 442.365 1021.45 435.034 1032.16 435.034C1034.02 435.034 1036.81 435.267 1040.18 435.965L1040.53 421.42C1038.21 420.955 1036.23 420.839 1034.37 420.839C1023.89 420.839 1017.26 427.238 1015.63 435.733H1014.82L1015.75 421.537H998.529V447.449C973.259 441.511 954.306 419.187 953.494 392.301ZM948.374 461.738L966.511 451.105C966.865 450.893 967.158 450.591 967.362 450.23C967.566 449.869 967.673 449.461 967.673 449.045C967.673 448.63 967.566 448.221 967.362 447.86C967.158 447.499 966.865 447.198 966.511 446.986L948.374 436.257C948.01 436.033 947.593 435.912 947.166 435.907C946.739 435.902 946.319 436.014 945.95 436.229C945.581 436.445 945.276 436.757 945.067 437.133C944.859 437.509 944.755 437.934 944.766 438.364V459.631C944.755 460.061 944.859 460.486 945.067 460.862C945.276 461.238 945.581 461.55 945.95 461.765C946.319 461.981 946.739 462.092 947.166 462.088C947.593 462.083 948.01 461.962 948.374 461.738Z" fill="white"/>
      <path d="M1135.51 451.094C1135.51 470.992 1152.03 482.744 1172.97 482.744C1193.92 482.744 1207.3 471.224 1208.46 456.912L1192.17 456.447C1191.12 465.406 1183.21 471.573 1173.21 471.573C1161.34 471.573 1153.19 462.846 1153.19 450.745C1153.19 438.644 1161.34 429.801 1172.86 429.801C1182.86 429.801 1190.43 436.317 1191.47 445.276L1207.88 444.578C1206.72 430.033 1192.99 419.212 1172.86 419.212C1151.8 419.212 1135.51 431.313 1135.51 451.094Z" fill="white"/>
      <path fill-rule="evenodd" clip-rule="evenodd" d="M1249.62 482.744C1227.86 482.744 1212.03 469.712 1212.03 451.094C1212.03 432.593 1227.62 419.212 1249.73 419.212C1271.49 419.212 1287.32 432.244 1287.32 450.862C1287.32 469.363 1271.72 482.744 1249.62 482.744ZM1249.85 472.039C1261.37 472.039 1269.63 463.196 1269.63 450.978C1269.63 438.528 1261.13 429.568 1249.5 429.568C1237.98 429.568 1229.72 438.528 1229.72 450.862C1229.72 463.196 1238.21 472.039 1249.85 472.039Z" fill="white"/>
      <path d="M1380.48 420.37C1396.54 420.37 1406.43 430.61 1406.43 447.482V480.411H1389.21V449.344C1389.21 438.173 1383.74 431.541 1374.67 431.541C1365.12 431.541 1359.54 437.708 1359.54 448.18V480.411H1342.32V449.344C1342.32 438.173 1336.62 431.541 1327.08 431.541C1317.42 431.541 1311.6 438.173 1311.6 449.46V480.411H1294.38V421.534H1311.37L1311.13 435.031H1311.95C1314.86 425.956 1323 420.37 1333.82 420.37C1345.34 420.37 1353.61 425.723 1357.33 435.031H1357.45C1360.47 426.305 1369.2 420.37 1380.48 420.37Z" fill="white"/>
      <path d="M1132.36 473.091C1132.36 479.367 1126.94 483.91 1119.38 483.91C1111.75 483.91 1106.18 479.367 1106.18 473.031C1106.18 466.696 1111.6 462.093 1119.15 462.093C1126.79 462.093 1132.36 466.696 1132.36 473.091Z" fill="white"/>
      <path d="M1101.91 421.544L1082.71 465.644L1060.6 421.544H1042.56L1073.28 479.141H1076.89L1075.26 482.865C1072.47 489.264 1067 492.29 1060.02 492.29C1056.29 492.29 1051.99 491.591 1048.03 490.195L1046.52 502.645C1051.17 503.925 1055.94 504.624 1061.41 504.624C1074.33 504.624 1083.52 498.34 1089.69 484.144L1117.73 421.544H1101.91Z" fill="white"/>
      <path d="M787.262 452.731C787.96 471.115 804.017 482.751 829.15 482.751C851.491 482.751 868.014 473.792 868.014 457.618C868.014 445.168 858.821 435.161 838.692 432.717L820.54 430.39C812.279 429.343 807.857 425.27 807.857 419.452C807.857 411.773 815.304 407.118 826.474 407.118C839.622 407.118 848.233 414.449 848.815 425.852L865.221 425.387C864.756 407.7 850.095 396.646 827.056 396.646C803.784 396.646 790.52 407.118 790.52 421.896C790.52 436.092 801.574 444.004 816.933 445.866L834.968 448.076C844.859 449.356 850.56 453.778 850.56 460.061C850.56 467.508 842.648 472.046 829.848 472.046C814.489 472.046 804.483 464.25 804.134 452.265L787.262 452.731Z" fill="white"/>
    </g>
  </g>
  <defs>
    <filter id="filter0_d_4792_42869" x="779.895" y="390.065" width="633.902" height="128.183" filterUnits="userSpaceOnUse" color-interpolation-filters="sRGB">
      <feFlood flood-opacity="0" result="BackgroundImageFix"/>
      <feColorMatrix in="SourceAlpha" type="matrix" values="0 0 0 0 0 0 0 0 0 0 0 0 0 0 0 0 0 0 127 0" result="hardAlpha"/>
      <feOffset dy="5.15679"/>
      <feGaussianBlur stdDeviation="3.68342"/>
      <feComposite in2="hardAlpha" operator="out"/>
      <feColorMatrix type="matrix" values="0 0 0 0 0.243137 0 0 0 0 0.0352941 0 0 0 0 0.364706 0 0 0 1 0"/>
      <feBlend mode="normal" in2="BackgroundImageFix" result="effect1_dropShadow_4792_42869"/>
      <feBlend mode="normal" in="SourceGraphic" in2="effect1_dropShadow_4792_42869" result="shape"/>
    </filter>
    <linearGradient id="paint0_linear_4792_42869" x1="800.5" y1="0" x2="800.5" y2="1604" gradientUnits="userSpaceOnUse">
      <stop stop-color="#021017"/>
      <stop offset="1" stop-color="#6B21A8"/>
    </linearGradient>
    <linearGradient id="paint1_linear_4792_42869" x1="465.281" y1="178.539" x2="465.281" y2="719.461" gradientUnits="userSpaceOnUse">
      <stop stop-color="#F8FAFC"/>
      <stop offset="1" stop-color="#F8FAFC" stop-opacity="0"/>
    </linearGradient>
    <clipPath id="clip0_4792_42869">
      <rect width="1600" height="900" fill="white" transform="translate(0.128906)"/>
    </clipPath>
  </defs>
</svg>
