<svg width="1600" height="900" viewBox="0 0 1600 900" fill="none" xmlns="http://www.w3.org/2000/svg">
<g clip-path="url(#clip0_4420_46130)">
<rect width="1601" height="1604" transform="translate(-1 -2)" fill="url(#paint0_linear_4420_46130)"/>
<g style="mix-blend-mode:overlay">
<rect x="427.148" y="-474.06" width="595" height="334" rx="3.5" transform="rotate(45 427.148 -474.06)" stroke="white"/>
<rect x="865.555" y="-35.6537" width="595" height="334" rx="3.5" transform="rotate(45 865.555 -35.6537)" stroke="white"/>
<rect x="1303.96" y="402.753" width="595" height="334" rx="3.5" transform="rotate(45 1303.96 402.753)" stroke="white"/>
<rect x="1742.37" y="841.159" width="595" height="334" rx="3.5" transform="rotate(45 1742.37 841.159)" stroke="white"/>
<rect x="173.297" y="-220.208" width="595" height="334" rx="3.5" transform="rotate(45 173.297 -220.208)" stroke="white"/>
<rect x="611.703" y="218.198" width="595" height="334" rx="3.5" transform="rotate(45 611.703 218.198)" stroke="white"/>
<rect x="1050.11" y="656.604" width="595" height="334" rx="3.5" transform="rotate(45 1050.11 656.604)" stroke="white"/>
<rect x="-80.5547" y="33.6427" width="595" height="334" rx="3.5" transform="rotate(45 -80.5547 33.6427)" stroke="white"/>
<rect x="357.852" y="472.049" width="595" height="334" rx="3.5" transform="rotate(45 357.852 472.049)" stroke="white"/>
<rect x="-334.406" y="287.494" width="595" height="334" rx="3.5" transform="rotate(45 -334.406 287.494)" stroke="white"/>
<rect x="104" y="725.9" width="595" height="334" rx="3.5" transform="rotate(45 104 725.9)" stroke="white"/>
</g>
<mask id="path-12-inside-1_4420_46130" fill="white">
<path fill-rule="evenodd" clip-rule="evenodd" d="M465.152 178.539C465.222 178.539 465.28 178.595 465.282 178.665C469.729 325.887 588.265 444.423 735.487 448.871C735.557 448.873 735.613 448.93 735.613 449C735.613 449.07 735.557 449.127 735.487 449.129C588.265 453.577 469.729 572.113 465.282 719.335C465.28 719.405 465.222 719.461 465.152 719.461C465.082 719.461 465.025 719.405 465.023 719.335C460.576 572.113 342.039 453.577 194.818 449.129C194.748 449.127 194.691 449.07 194.691 449C194.691 448.93 194.748 448.873 194.818 448.871C342.039 444.423 460.576 325.887 465.023 178.665C465.025 178.595 465.082 178.539 465.152 178.539ZM527.336 459.038L440.862 509.736C439.125 510.804 437.134 511.38 435.1 511.403C433.065 511.426 431.062 510.895 429.301 509.867C427.541 508.838 426.087 507.35 425.094 505.559C424.101 503.768 423.605 501.739 423.658 499.688V398.291C423.605 396.239 424.101 394.211 425.094 392.42C426.087 390.628 427.541 389.14 429.301 388.112C431.062 387.083 433.065 386.553 435.1 386.576C437.134 386.599 439.125 387.175 440.862 388.243L527.336 439.398C529.025 440.409 530.424 441.846 531.396 443.568C532.368 445.289 532.879 447.236 532.879 449.218C532.879 451.199 532.368 453.146 531.396 454.868C530.424 456.59 529.025 458.027 527.336 459.038Z"/>
</mask>
<path fill-rule="evenodd" clip-rule="evenodd" d="M465.152 178.539C465.222 178.539 465.28 178.595 465.282 178.665C469.729 325.887 588.265 444.423 735.487 448.871C735.557 448.873 735.613 448.93 735.613 449C735.613 449.07 735.557 449.127 735.487 449.129C588.265 453.577 469.729 572.113 465.282 719.335C465.28 719.405 465.222 719.461 465.152 719.461C465.082 719.461 465.025 719.405 465.023 719.335C460.576 572.113 342.039 453.577 194.818 449.129C194.748 449.127 194.691 449.07 194.691 449C194.691 448.93 194.748 448.873 194.818 448.871C342.039 444.423 460.576 325.887 465.023 178.665C465.025 178.595 465.082 178.539 465.152 178.539ZM527.336 459.038L440.862 509.736C439.125 510.804 437.134 511.38 435.1 511.403C433.065 511.426 431.062 510.895 429.301 509.867C427.541 508.838 426.087 507.35 425.094 505.559C424.101 503.768 423.605 501.739 423.658 499.688V398.291C423.605 396.239 424.101 394.211 425.094 392.42C426.087 390.628 427.541 389.14 429.301 388.112C431.062 387.083 433.065 386.553 435.1 386.576C437.134 386.599 439.125 387.175 440.862 388.243L527.336 439.398C529.025 440.409 530.424 441.846 531.396 443.568C532.368 445.289 532.879 447.236 532.879 449.218C532.879 451.199 532.368 453.146 531.396 454.868C530.424 456.59 529.025 458.027 527.336 459.038Z" fill="url(#paint1_linear_4420_46130)"/>
<path d="M465.282 178.665L464.328 178.694L464.328 178.694L465.282 178.665ZM735.487 448.871L735.458 449.824L735.458 449.824L735.487 448.871ZM735.487 449.129L735.458 448.176L735.458 448.176L735.487 449.129ZM465.282 719.335L464.328 719.306L464.328 719.306L465.282 719.335ZM465.023 719.335L465.976 719.306L465.976 719.306L465.023 719.335ZM194.818 449.129L194.846 448.176L194.846 448.176L194.818 449.129ZM194.691 449L193.737 449L193.737 449L194.691 449ZM194.818 448.871L194.846 449.824L194.846 449.824L194.818 448.871ZM465.023 178.665L465.977 178.694L465.977 178.694L465.023 178.665ZM440.862 509.736L440.379 508.913L440.371 508.918L440.362 508.923L440.862 509.736ZM527.336 459.038L527.818 459.861L527.826 459.856L527.336 459.038ZM429.301 509.867L429.783 509.043L429.783 509.043L429.301 509.867ZM425.094 505.559L424.26 506.022L424.26 506.022L425.094 505.559ZM423.658 499.688L424.611 499.712L424.612 499.7V499.688H423.658ZM423.658 398.291H424.612V398.279L424.611 398.266L423.658 398.291ZM425.094 392.42L424.26 391.957L424.26 391.957L425.094 392.42ZM429.301 388.112L429.783 388.936L429.783 388.936L429.301 388.112ZM440.862 388.243L440.362 389.056L440.369 389.06L440.376 389.064L440.862 388.243ZM527.336 439.398L527.826 438.579L527.821 438.577L527.336 439.398ZM531.396 443.568L530.565 444.036L530.565 444.036L531.396 443.568ZM531.396 454.868L530.565 454.399L530.565 454.399L531.396 454.868ZM466.235 178.637C466.218 178.058 465.744 177.585 465.152 177.585V179.493C464.7 179.493 464.341 179.133 464.328 178.694L466.235 178.637ZM735.516 447.917C588.798 443.485 470.667 325.354 466.235 178.636L464.328 178.694C468.791 326.42 587.732 445.362 735.458 449.824L735.516 447.917ZM736.567 449C736.567 448.407 736.094 447.934 735.516 447.917L735.458 449.824C735.02 449.811 734.659 449.453 734.659 449H736.567ZM735.516 450.083C736.095 450.066 736.567 449.592 736.567 449H734.659C734.659 448.548 735.019 448.189 735.458 448.176L735.516 450.083ZM466.235 719.364C470.668 572.646 588.798 454.515 735.516 450.083L735.458 448.176C587.732 452.638 468.791 571.58 464.328 719.306L466.235 719.364ZM465.152 720.415C465.745 720.415 466.218 719.942 466.235 719.363L464.328 719.306C464.341 718.867 464.7 718.507 465.152 718.507V720.415ZM464.069 719.363C464.087 719.943 464.561 720.415 465.152 720.415V718.507C465.604 718.507 465.963 718.867 465.976 719.306L464.069 719.363ZM194.789 450.083C341.506 454.515 459.637 572.646 464.069 719.364L465.976 719.306C461.514 571.58 342.572 452.638 194.846 448.176L194.789 450.083ZM193.737 449C193.737 449.592 194.21 450.066 194.789 450.083L194.846 448.176C195.286 448.189 195.646 448.548 195.645 449L193.737 449ZM194.789 447.917C194.21 447.934 193.738 448.408 193.737 449L195.645 449C195.645 449.452 195.285 449.811 194.846 449.824L194.789 447.917ZM464.069 178.636C459.637 325.354 341.506 443.485 194.789 447.917L194.846 449.824C342.572 445.362 461.514 326.42 465.977 178.694L464.069 178.636ZM465.152 177.585C464.56 177.585 464.087 178.057 464.069 178.637L465.977 178.694C465.963 179.133 465.604 179.493 465.152 179.493V177.585ZM441.344 510.559L527.818 459.861L526.853 458.215L440.379 508.913L441.344 510.559ZM435.11 512.357C437.318 512.332 439.477 511.707 441.362 510.549L440.362 508.923C438.772 509.901 436.95 510.428 435.089 510.449L435.11 512.357ZM428.82 510.691C430.73 511.806 432.903 512.382 435.11 512.357L435.089 510.449C433.227 510.47 431.395 509.984 429.783 509.043L428.82 510.691ZM424.26 506.022C425.336 507.962 426.911 509.575 428.82 510.691L429.783 509.043C428.171 508.101 426.839 506.738 425.928 505.096L424.26 506.022ZM422.704 499.663C422.647 501.884 423.184 504.081 424.26 506.022L425.928 505.096C425.018 503.454 424.563 501.594 424.611 499.712L422.704 499.663ZM422.704 398.291V499.688H424.612V398.291H422.704ZM424.26 391.957C423.184 393.898 422.647 396.094 422.704 398.316L424.611 398.266C424.563 396.384 425.018 394.524 425.928 392.882L424.26 391.957ZM428.82 387.288C426.911 388.403 425.336 390.017 424.26 391.957L425.928 392.882C426.839 391.24 428.171 389.877 429.783 388.936L428.82 387.288ZM435.11 385.622C432.903 385.597 430.73 386.173 428.82 387.288L429.783 388.936C431.395 387.994 433.227 387.509 435.089 387.53L435.11 385.622ZM441.362 387.43C439.477 386.272 437.318 385.647 435.11 385.622L435.089 387.53C436.95 387.551 438.772 388.078 440.362 389.056L441.362 387.43ZM527.821 438.577L441.348 387.422L440.376 389.064L526.85 440.219L527.821 438.577ZM532.226 443.099C531.174 441.233 529.657 439.676 527.826 438.579L526.846 440.216C528.392 441.142 529.674 442.458 530.565 444.036L532.226 443.099ZM533.833 449.218C533.833 447.072 533.279 444.964 532.226 443.099L530.565 444.036C531.456 445.615 531.925 447.4 531.925 449.218H533.833ZM532.226 455.337C533.279 453.472 533.833 451.363 533.833 449.218H531.925C531.925 451.035 531.456 452.821 530.565 454.399L532.226 455.337ZM527.826 459.856C529.657 458.76 531.174 457.202 532.226 455.337L530.565 454.399C529.674 455.977 528.392 457.293 526.846 458.219L527.826 459.856Z" fill="white" mask="url(#path-12-inside-1_4420_46130)"/>
<path d="M1025.77 281.183H1046.94V284.689H1038.89L1038.95 304.556H1033.75L1033.81 284.689H1025.77V281.183Z" fill="white"/>
<path d="M1025.36 304.556H1019.99L1017.08 298.012H1005.3L1002.39 304.556H997.082L1007.77 281.183H1014.65L1025.36 304.556ZM1011.17 284.789L1006.7 294.873H1015.68L1011.17 284.789Z" fill="white"/>
<path d="M967.221 304.556H956.402V281.183H967.254C976.002 281.183 981.979 285.624 981.979 292.836C981.979 300.015 976.069 304.556 967.221 304.556ZM961.578 284.322V301.384H967.054C972.797 301.384 976.737 298.179 976.737 292.903C976.737 287.627 972.83 284.322 966.987 284.322H961.578Z" fill="white"/>
<path d="M949.561 281.183V284.489L935.771 284.422V291.3L947.858 291.267V294.305L935.771 294.272V301.217L949.828 301.15V304.556H930.629V281.183H949.561Z" fill="white"/>
<path d="M903.719 281.183H924.888V284.689H916.841L916.908 304.556H911.699L911.766 284.689H903.719V281.183Z" fill="white"/>
<path d="M903.313 304.556H897.937L895.032 298.012H883.245L880.34 304.556H875.031L885.716 281.183H892.595L903.313 304.556ZM889.122 284.789L884.648 294.873H893.63L889.122 284.789Z" fill="white"/>
<path d="M869.893 281.183V284.489L856.103 284.422V291.3L868.19 291.267V294.305L856.103 294.272V301.217L870.16 301.15V304.556H850.961V281.183H869.893Z" fill="white"/>
<path d="M827.168 304.556H821.992V281.183H833.345C839.522 281.183 843.462 283.788 843.462 287.861C843.462 291.3 840.624 293.604 836.25 293.604H835.215V293.771H835.615C840.323 293.771 842.627 295.975 843.562 299.748L844.664 304.556H838.787L837.819 300.015C837.151 297.077 835.014 295.841 832.176 295.841H827.168V304.556ZM827.168 284.255V293.037H833.044C836.216 293.037 838.287 291.334 838.287 288.663C838.287 285.991 836.183 284.255 832.911 284.255H827.168Z" fill="white"/>
<path d="M801.591 305.224C793.21 305.224 787.133 300.316 787.133 292.903C787.133 285.424 793.21 280.515 801.658 280.515C809.437 280.515 815.014 284.555 815.348 290.465L810.205 290.632C809.872 286.592 806.466 283.854 801.591 283.854C796.282 283.854 792.442 287.494 792.442 292.836C792.442 298.179 796.282 301.751 801.624 301.751C806.399 301.751 809.938 299.114 810.339 295.107L815.381 295.24C815.047 301.15 809.437 305.224 801.591 305.224Z" fill="white"/>
<g filter="url(#filter0_d_4420_46130)">
<path fill-rule="evenodd" clip-rule="evenodd" d="M953.365 363.519C953.365 363.504 953.353 363.492 953.338 363.492C953.323 363.492 953.311 363.504 953.311 363.519C952.385 394.167 927.885 418.887 897.328 420.165V403.355H915.479V392.767H893.255V392.185C897.444 391.021 899.538 386.6 899.538 379.735V377.175H882.085V385.32C882.085 390.091 879.641 392.767 875.336 392.767H868.936V403.355H880.223V428.722C880.223 445.128 889.532 452.575 902.913 452.575C907.451 452.575 911.407 452.11 915.247 451.411L915.479 439.194C913.036 439.776 910.476 440.008 908.731 440.008C901.4 440.008 897.328 435.121 897.328 426.511V420.269C927.885 421.547 952.385 446.267 953.311 476.915C953.311 476.93 953.323 476.942 953.338 476.942C953.345 476.942 953.351 476.939 953.356 476.935C953.358 476.933 953.359 476.932 953.36 476.93C953.361 476.929 953.362 476.927 953.363 476.925C953.364 476.922 953.365 476.919 953.365 476.915C954.177 450.03 973.13 427.706 998.4 421.767V451.631H1015.62V426.614C1015.62 413.582 1021.32 406.252 1032.03 406.252C1033.89 406.252 1036.68 406.484 1040.06 407.183L1040.4 392.638C1038.08 392.172 1036.1 392.056 1034.24 392.056C1023.77 392.056 1017.13 398.456 1015.5 406.95H1014.69L1015.62 392.754H998.4V418.667C973.13 412.728 954.177 390.404 953.365 363.519ZM948.246 432.955L966.382 422.322C966.736 422.11 967.029 421.809 967.233 421.448C967.437 421.087 967.544 420.678 967.544 420.263C967.544 419.847 967.437 419.439 967.233 419.078C967.029 418.716 966.736 418.415 966.382 418.203L948.246 407.474C947.881 407.25 947.464 407.129 947.037 407.125C946.61 407.12 946.19 407.231 945.821 407.447C945.452 407.662 945.147 407.974 944.939 408.35C944.73 408.726 944.626 409.151 944.637 409.582V430.848C944.626 431.278 944.73 431.704 944.939 432.079C945.147 432.455 945.452 432.767 945.821 432.983C946.19 433.198 946.61 433.31 947.037 433.305C947.464 433.3 947.881 433.179 948.246 432.955Z" fill="white"/>
<path d="M1135.38 422.312C1135.38 442.209 1151.9 453.961 1172.84 453.961C1193.79 453.961 1207.17 442.442 1208.33 428.129L1192.04 427.664C1191 436.624 1183.08 442.791 1173.08 442.791C1161.21 442.791 1153.06 434.064 1153.06 421.962C1153.06 409.861 1161.21 401.018 1172.73 401.018C1182.73 401.018 1190.3 407.534 1191.35 416.494L1207.75 415.795C1206.59 401.251 1192.86 390.429 1172.73 390.429C1151.67 390.429 1135.38 402.531 1135.38 422.312Z" fill="white"/>
<path fill-rule="evenodd" clip-rule="evenodd" d="M1249.49 453.961C1227.73 453.961 1211.9 440.929 1211.9 422.312C1211.9 403.811 1227.5 390.429 1249.6 390.429C1271.36 390.429 1287.19 403.461 1287.19 422.079C1287.19 440.58 1271.59 453.961 1249.49 453.961ZM1249.72 443.256C1261.24 443.256 1269.5 434.413 1269.5 422.195C1269.5 409.745 1261.01 400.785 1249.37 400.785C1237.85 400.785 1229.59 409.745 1229.59 422.079C1229.59 434.413 1238.08 443.256 1249.72 443.256Z" fill="white"/>
<path d="M1380.35 391.588C1396.41 391.588 1406.3 401.827 1406.3 418.699V451.629H1389.08V420.561C1389.08 409.39 1383.61 402.758 1374.54 402.758C1365 402.758 1359.41 408.925 1359.41 419.397V451.629H1342.19V420.561C1342.19 409.39 1336.49 402.758 1326.95 402.758C1317.29 402.758 1311.47 409.39 1311.47 420.677V451.629H1294.25V392.751H1311.24L1311.01 406.249H1311.82C1314.73 397.173 1322.87 391.588 1333.7 391.588C1345.22 391.588 1353.48 396.94 1357.2 406.249H1357.32C1360.34 397.522 1369.07 391.588 1380.35 391.588Z" fill="white"/>
<path d="M1132.23 444.309C1132.23 450.585 1126.81 455.127 1119.25 455.127C1111.62 455.127 1106.05 450.585 1106.05 444.249C1106.05 437.913 1111.47 433.31 1119.02 433.31C1126.66 433.31 1132.23 437.913 1132.23 444.309Z" fill="white"/>
<path d="M1101.78 392.761L1082.58 436.861L1060.47 392.761H1042.43L1073.15 450.358H1076.76L1075.13 454.082C1072.34 460.482 1066.87 463.507 1059.89 463.507C1056.16 463.507 1051.86 462.809 1047.9 461.412L1046.39 473.863C1051.04 475.143 1055.82 475.841 1061.28 475.841C1074.2 475.841 1083.39 469.557 1089.56 455.362L1117.6 392.761H1101.78Z" fill="white"/>
<path d="M787.133 423.948C787.831 442.333 803.888 453.969 829.021 453.969C851.362 453.969 867.885 445.009 867.885 428.835C867.885 416.385 858.693 406.378 838.563 403.934L820.411 401.607C812.15 400.56 807.728 396.488 807.728 390.67C807.728 382.99 815.175 378.336 826.345 378.336C839.494 378.336 848.104 385.666 848.686 397.069L865.092 396.604C864.627 378.917 849.966 367.863 826.927 367.863C803.656 367.863 790.391 378.336 790.391 393.113C790.391 407.309 801.445 415.221 816.804 417.083L834.839 419.294C844.73 420.574 850.431 424.995 850.431 431.279C850.431 438.726 842.519 443.264 829.72 443.264C814.36 443.264 804.354 435.468 804.005 423.483L787.133 423.948Z" fill="white"/>
</g>
<path d="M1067.8 616.754H1063.66V591.161H1067.8V616.754Z" fill="white"/>
<path d="M1060.93 616.754H1056.51L1052.74 608.747H1038.88L1035.16 616.754H1030.8L1043.02 591.161H1048.68L1060.93 616.754ZM1045.79 594.013L1040.09 606.188H1051.53L1045.79 594.013Z" fill="white"/>
<path d="M1012.15 597.925C1017.16 597.925 1020.19 601.179 1020.19 606.48V616.754H1016.17V606.919C1016.17 602.97 1014.09 600.594 1010.61 600.594C1007.03 600.594 1004.87 603.043 1004.87 607.138V616.754H1000.85V590.795H1004.87V602.86H1005.09C1005.93 599.826 1008.6 597.925 1012.15 597.925Z" fill="white"/>
<path d="M993.605 617.046C989.583 617.046 986.95 614.743 986.95 609.88V600.813H983.258V598.29H985.342C986.768 598.29 987.572 597.449 987.572 595.95V593.354H991.594V594.415C991.594 596.462 990.972 597.815 989.729 598.107V598.29H997.261V600.813H990.936V609.441C990.936 612.439 992.361 614.121 994.884 614.121C995.579 614.121 996.493 614.011 997.37 613.792L997.334 616.607C996.164 616.9 994.921 617.046 993.605 617.046Z" fill="white"/>
<path d="M978.334 594.854C976.542 594.854 975.336 593.94 975.336 592.55C975.336 591.124 976.542 590.21 978.334 590.21C980.162 590.21 981.368 591.124 981.368 592.55C981.368 593.94 980.162 594.854 978.334 594.854ZM976.323 616.754V598.29H980.345V616.754H976.323Z" fill="white"/>
<path d="M951.852 616.754H947.282L940.555 598.291H944.869L950.097 613.354L955.289 598.291H959.676L964.831 613.354L970.169 598.291H973.532L966.805 616.754H962.564L957.226 601.508L951.852 616.754Z" fill="white"/>
<path d="M921.338 617.448C915.708 617.448 911.869 614.889 911.211 610.94L914.83 610.758C915.379 613.536 917.792 615.328 921.485 615.328C924.446 615.328 926.493 614.194 926.493 612.293C926.493 610.648 925.104 609.588 922.508 609.222L918.523 608.747C914.099 608.198 912.162 606.151 912.162 603.409C912.162 599.936 915.635 597.632 920.607 597.632C925.945 597.632 929.491 600.228 929.893 603.957L926.311 604.104C925.945 601.325 923.715 599.68 920.461 599.68C917.682 599.68 915.854 600.886 915.854 602.751C915.854 604.286 917.024 605.237 919.145 605.529L923.166 606.041C927.48 606.553 930.405 608.381 930.405 611.635C930.405 615.255 926.566 617.448 921.338 617.448Z" fill="white"/>
<path d="M910.798 616.754H905.753L897.344 607.65L893.944 610.136V616.754H889.922V590.795H893.944V606.37L905.131 598.29H910.14L900.232 605.566L910.798 616.754Z" fill="white"/>
<path d="M874.71 617.485C868.202 617.485 863.34 613.426 863.34 607.577C863.34 601.873 868.056 597.559 874.747 597.559C881.291 597.559 886.154 601.654 886.154 607.504C886.154 613.207 881.437 617.485 874.71 617.485ZM874.82 614.999C879.024 614.999 882.022 611.854 882.022 607.577C882.022 603.189 878.878 600.009 874.637 600.009C870.469 600.009 867.471 603.153 867.471 607.467C867.471 611.854 870.579 614.999 874.82 614.999Z" fill="white"/>
<path d="M842.402 591.161H865.107V594.013H855.784L855.857 616.754H851.616L851.689 594.013H842.402V591.161Z" fill="white"/>
<path d="M842.708 616.754H837.663L829.254 607.65L825.854 610.136V616.754H821.832V590.795H825.854V606.37L837.041 598.29H842.05L832.142 605.566L842.708 616.754Z" fill="white"/>
<path d="M815.096 594.854C813.304 594.854 812.098 593.94 812.098 592.55C812.098 591.124 813.304 590.21 815.096 590.21C816.924 590.21 818.13 591.124 818.13 592.55C818.13 593.94 816.924 594.854 815.096 594.854ZM813.085 616.754V598.29H817.106V616.754H813.085Z" fill="white"/>
<path d="M787.133 591.161H809.837V594.013H800.514L800.587 616.754H796.346L796.419 594.013H787.133V591.161Z" fill="white"/>
<path d="M1220.78 535.247C1222.09 535.247 1223.22 535.479 1224.14 535.942C1225.09 536.38 1225.82 537.014 1226.34 537.843C1226.85 538.672 1227.1 539.683 1227.1 540.877C1227.1 542.413 1226.6 543.717 1225.6 544.789C1224.63 545.862 1223.39 546.837 1221.88 547.714L1228.93 554.515C1229.57 553.759 1230.08 552.894 1230.47 551.919C1230.88 550.919 1231.22 549.847 1231.49 548.701H1234.74C1234.35 550.261 1233.87 551.712 1233.28 553.052C1232.7 554.393 1231.94 555.563 1231.02 556.562L1236.35 561.754H1232L1228.82 558.683C1228.24 559.194 1227.63 559.67 1226.99 560.108C1226.38 560.523 1225.71 560.876 1224.98 561.169C1224.25 561.461 1223.46 561.693 1222.61 561.863C1221.78 562.034 1220.85 562.119 1219.83 562.119C1218.15 562.119 1216.68 561.851 1215.44 561.315C1214.22 560.754 1213.27 559.938 1212.59 558.865C1211.93 557.793 1211.6 556.489 1211.6 554.953C1211.6 553.71 1211.82 552.638 1212.26 551.736C1212.72 550.834 1213.38 550.03 1214.23 549.323C1215.09 548.616 1216.09 547.934 1217.23 547.276C1216.72 546.691 1216.22 546.081 1215.73 545.448C1215.25 544.814 1214.84 544.131 1214.53 543.4C1214.21 542.645 1214.05 541.828 1214.05 540.951C1214.05 539.756 1214.32 538.733 1214.86 537.879C1215.39 537.026 1216.16 536.38 1217.16 535.942C1218.18 535.479 1219.39 535.247 1220.78 535.247ZM1219.17 549.286C1218.29 549.798 1217.54 550.322 1216.9 550.859C1216.29 551.37 1215.82 551.943 1215.48 552.577C1215.14 553.211 1214.97 553.966 1214.97 554.844C1214.97 556.184 1215.42 557.257 1216.32 558.061C1217.22 558.865 1218.43 559.267 1219.94 559.267C1221.5 559.267 1222.84 559.012 1223.96 558.5C1225.08 557.988 1226.02 557.379 1226.77 556.672L1219.17 549.286ZM1220.67 537.879C1219.64 537.879 1218.8 538.148 1218.15 538.684C1217.51 539.22 1217.2 539.963 1217.2 540.914C1217.2 541.791 1217.43 542.608 1217.89 543.364C1218.35 544.095 1219.02 544.911 1219.9 545.813C1221.34 544.984 1222.36 544.204 1222.97 543.473C1223.61 542.718 1223.92 541.852 1223.92 540.877C1223.92 540 1223.63 539.281 1223.05 538.72C1222.46 538.16 1221.67 537.879 1220.67 537.879Z" fill="white"/>
<path d="M1191.44 562.448C1185.81 562.448 1181.97 559.889 1181.31 555.94L1184.93 555.758C1185.48 558.536 1187.89 560.328 1191.58 560.328C1194.54 560.328 1196.59 559.194 1196.59 557.293C1196.59 555.648 1195.2 554.588 1192.61 554.222L1188.62 553.747C1184.2 553.198 1182.26 551.151 1182.26 548.409C1182.26 544.936 1185.73 542.632 1190.7 542.632C1196.04 542.632 1199.59 545.228 1199.99 548.957L1196.41 549.104C1196.04 546.325 1193.81 544.68 1190.56 544.68C1187.78 544.68 1185.95 545.886 1185.95 547.751C1185.95 549.286 1187.12 550.237 1189.24 550.529L1193.26 551.041C1197.58 551.553 1200.5 553.381 1200.5 556.635C1200.5 560.255 1196.66 562.448 1191.44 562.448Z" fill="white"/>
<path d="M1180.9 561.754H1175.85L1167.44 552.65L1164.04 555.136V561.754H1160.02V535.795H1164.04V551.37L1175.23 543.29H1180.24L1170.33 550.566L1180.9 561.754Z" fill="white"/>
<path d="M1144.81 562.485C1138.3 562.485 1133.44 558.426 1133.44 552.577C1133.44 546.873 1138.16 542.559 1144.85 542.559C1151.39 542.559 1156.26 546.654 1156.26 552.504C1156.26 558.207 1151.54 562.485 1144.81 562.485ZM1144.92 559.999C1149.13 559.999 1152.12 556.854 1152.12 552.577C1152.12 548.189 1148.98 545.009 1144.74 545.009C1140.57 545.009 1137.57 548.153 1137.57 552.467C1137.57 556.854 1140.68 559.999 1144.92 559.999Z" fill="white"/>
<path d="M1119.14 562.485C1112.63 562.485 1107.77 558.426 1107.77 552.577C1107.77 546.873 1112.49 542.559 1119.18 542.559C1125.72 542.559 1130.58 546.654 1130.58 552.504C1130.58 558.207 1125.87 562.485 1119.14 562.485ZM1119.25 559.999C1123.45 559.999 1126.45 556.854 1126.45 552.577C1126.45 548.189 1123.31 545.009 1119.07 545.009C1114.9 545.009 1111.9 548.153 1111.9 552.467C1111.9 556.854 1115.01 559.999 1119.25 559.999Z" fill="white"/>
<path d="M1095.29 561.754H1081.95V536.161H1094.23C1100.01 536.161 1103.7 538.72 1103.7 542.632C1103.7 545.959 1100.96 548.007 1096.79 548.263V548.519C1101.69 548.701 1104.91 551.078 1104.91 554.953C1104.91 559.121 1101.21 561.754 1095.29 561.754ZM1086.11 538.464V547.678H1093.46C1097.12 547.678 1099.42 545.886 1099.42 543.071C1099.42 540.256 1097.12 538.464 1093.46 538.464H1086.11ZM1086.11 549.798V559.414H1094.6C1098.25 559.414 1100.59 557.549 1100.59 554.697C1100.59 551.699 1098.25 549.798 1094.6 549.798H1086.11Z" fill="white"/>
<path d="M1067.4 565.117H1064.88L1066.34 556.745H1070.43L1067.4 565.117Z" fill="white"/>
<path d="M1053.4 562.448C1047.77 562.448 1043.94 559.889 1043.28 555.94L1046.9 555.758C1047.45 558.536 1049.86 560.328 1053.55 560.328C1056.51 560.328 1058.56 559.194 1058.56 557.293C1058.56 555.648 1057.17 554.588 1054.57 554.222L1050.59 553.747C1046.17 553.198 1044.23 551.151 1044.23 548.409C1044.23 544.936 1047.7 542.632 1052.67 542.632C1058.01 542.632 1061.56 545.228 1061.96 548.957L1058.38 549.104C1058.01 546.325 1055.78 544.68 1052.53 544.68C1049.75 544.68 1047.92 545.886 1047.92 547.751C1047.92 549.286 1049.09 550.237 1051.21 550.529L1055.23 551.041C1059.55 551.553 1062.47 553.381 1062.47 556.635C1062.47 560.255 1058.63 562.448 1053.4 562.448Z" fill="white"/>
<path d="M1029.27 562.485C1022.76 562.485 1017.9 558.426 1017.9 552.577C1017.9 546.873 1022.62 542.559 1029.31 542.559C1035.85 542.559 1040.72 546.654 1040.72 552.504C1040.72 558.207 1036 562.485 1029.27 562.485ZM1029.38 559.999C1033.59 559.999 1036.58 556.854 1036.58 552.577C1036.58 548.189 1033.44 545.009 1029.2 545.009C1025.03 545.009 1022.03 548.153 1022.03 552.467C1022.03 556.854 1025.14 559.999 1029.38 559.999Z" fill="white"/>
<path d="M1015.12 551.663C1015.12 551.919 1015.12 552.284 1015.05 552.686H997.755C997.755 557.147 1000.75 559.925 1004.77 559.925C1008.1 559.925 1010.84 557.988 1011.39 555.282L1014.94 555.502C1014.32 559.487 1010.15 562.485 1004.63 562.485C998.34 562.485 993.66 558.646 993.66 552.54C993.66 546.508 998.303 542.559 1004.56 542.559C1010.62 542.559 1015.12 546.215 1015.12 551.663ZM997.792 550.822L1011.14 550.749C1011.14 547.239 1008.32 544.716 1004.52 544.716C1000.75 544.716 998.084 547.202 997.792 550.822Z" fill="white"/>
<path d="M985.917 547.531V535.795H989.938V561.754H985.917L985.99 557.549H985.661C984.747 560.364 981.493 562.412 977.69 562.412C971.768 562.412 967.344 558.353 967.344 552.577C967.344 546.91 971.621 542.669 977.764 542.669C981.456 542.669 984.747 544.643 985.661 547.531H985.917ZM978.86 559.999C982.919 559.999 986.026 556.928 986.026 552.54C986.026 548.263 982.992 545.045 978.641 545.045C974.583 545.045 971.475 548.08 971.475 552.467C971.475 556.781 974.51 559.999 978.86 559.999Z" fill="white"/>
<path d="M961.592 539.854C959.8 539.854 958.594 538.94 958.594 537.55C958.594 536.124 959.8 535.21 961.592 535.21C963.42 535.21 964.626 536.124 964.626 537.55C964.626 538.94 963.42 539.854 961.592 539.854ZM959.581 561.754V543.29H963.603V561.754H959.581Z" fill="white"/>
<path d="M945.305 561.754H939.418L928.121 536.161H932.508L942.453 559.158L952.361 536.161H956.602L945.305 561.754Z" fill="white"/>
<path d="M918.293 551.663C918.293 551.919 918.293 552.284 918.22 552.686H900.927C900.927 557.147 903.925 559.925 907.947 559.925C911.274 559.925 914.016 557.988 914.564 555.282L918.11 555.502C917.489 559.487 913.321 562.485 907.8 562.485C901.512 562.485 896.832 558.646 896.832 552.54C896.832 546.508 901.475 542.559 907.727 542.559C913.796 542.559 918.293 546.215 918.293 551.663ZM900.963 550.822L914.308 550.749C914.308 547.239 911.493 544.716 907.691 544.716C903.925 544.716 901.256 547.202 900.963 550.822Z" fill="white"/>
<path d="M891.636 562.046C887.614 562.046 884.982 559.743 884.982 554.88V545.813H881.289V543.29H883.373C884.799 543.29 885.603 542.449 885.603 540.95V538.354H889.625V539.415C889.625 541.462 889.003 542.815 887.76 543.107V543.29H895.292V545.813H888.967V554.441C888.967 557.439 890.393 559.121 892.915 559.121C893.61 559.121 894.524 559.011 895.402 558.792L895.365 561.607C894.195 561.9 892.952 562.046 891.636 562.046Z" fill="white"/>
<path d="M866.575 562.156C862.224 562.156 859.445 560.328 859.445 557.001C859.445 553.71 862.224 551.626 867.087 551.114L871.986 550.566C873.265 550.42 874.911 550.054 874.911 548.372C874.911 546.508 872.936 544.936 869.975 544.936C866.721 544.936 864.491 546.873 864.235 549.506L860.286 549.433C860.725 545.557 864.344 542.632 870.084 542.632C875.093 542.632 879.005 544.863 879.005 549.469V556.306L879.81 561.754H875.934L875.386 557.33H875.093C874.216 560.218 871.035 562.156 866.575 562.156ZM868.22 559.889C872.242 559.889 874.984 557.622 874.984 554.039V551.041H874.691C874.289 551.626 873.265 552.138 871.913 552.357L867.781 552.942C865.076 553.345 863.54 554.624 863.54 556.562C863.54 558.646 865.258 559.889 868.22 559.889Z" fill="white"/>
<path d="M856.703 551.663C856.703 551.919 856.703 552.284 856.63 552.686H839.337C839.337 557.147 842.335 559.925 846.357 559.925C849.684 559.925 852.426 557.988 852.974 555.282L856.521 555.502C855.899 559.487 851.731 562.485 846.21 562.485C839.922 562.485 835.242 558.646 835.242 552.54C835.242 546.508 839.885 542.559 846.137 542.559C852.206 542.559 856.703 546.215 856.703 551.663ZM839.374 550.822L852.718 550.749C852.718 547.239 849.903 544.716 846.101 544.716C842.335 544.716 839.666 547.202 839.374 550.822Z" fill="white"/>
<path d="M825.643 561.753H821.621V543.29H825.643L825.46 548.043H825.789C826.301 545.155 828.531 543.071 831.931 543.071C832.516 543.071 833.174 543.144 833.979 543.29L833.869 546.69C832.918 546.471 832.004 546.398 831.383 546.398C827.69 546.398 825.643 548.994 825.643 553.564V561.753Z" fill="white"/>
<path d="M803.111 562.485C794.153 562.485 787.719 557.037 787.719 548.994C787.719 540.877 794.153 535.43 803.184 535.43C811.3 535.43 817.223 539.78 817.662 546.105L813.494 546.252C813.055 541.462 808.887 538.135 803.111 538.135C796.64 538.135 792.033 542.559 792.033 548.921C792.033 555.319 796.64 559.633 803.147 559.633C808.851 559.633 813.165 556.452 813.64 551.736L817.699 551.845C817.223 558.134 811.3 562.485 803.111 562.485Z" fill="white"/>
</g>
<defs>
<filter id="filter0_d_4420_46130" x="779.766" y="361.282" width="633.902" height="128.183" filterUnits="userSpaceOnUse" color-interpolation-filters="sRGB">
<feFlood flood-opacity="0" result="BackgroundImageFix"/>
<feColorMatrix in="SourceAlpha" type="matrix" values="0 0 0 0 0 0 0 0 0 0 0 0 0 0 0 0 0 0 127 0" result="hardAlpha"/>
<feOffset dy="5.15679"/>
<feGaussianBlur stdDeviation="3.68342"/>
<feComposite in2="hardAlpha" operator="out"/>
<feColorMatrix type="matrix" values="0 0 0 0 0.243137 0 0 0 0 0.0352941 0 0 0 0 0.364706 0 0 0 1 0"/>
<feBlend mode="normal" in2="BackgroundImageFix" result="effect1_dropShadow_4420_46130"/>
<feBlend mode="normal" in="SourceGraphic" in2="effect1_dropShadow_4420_46130" result="shape"/>
</filter>
<linearGradient id="paint0_linear_4420_46130" x1="800.5" y1="0" x2="800.5" y2="1604" gradientUnits="userSpaceOnUse">
<stop stop-color="#021017"/>
<stop offset="1" stop-color="#6B21A8"/>
</linearGradient>
<linearGradient id="paint1_linear_4420_46130" x1="465.152" y1="178.539" x2="465.152" y2="719.461" gradientUnits="userSpaceOnUse">
<stop stop-color="#F8FAFC"/>
<stop offset="1" stop-color="#F8FAFC" stop-opacity="0"/>
</linearGradient>
<clipPath id="clip0_4420_46130">
<rect width="1600" height="900" fill="white"/>
</clipPath>
</defs>
</svg>
