<svg width="901" height="1600" viewBox="0 0 901 1600" fill="none" xmlns="http://www.w3.org/2000/svg">
<g clip-path="url(#clip0_4418_42874)">
<rect width="1437.13" height="1604.79" transform="translate(-268 -2.39551)" fill="url(#paint0_linear_4418_42874)"/>
<g style="mix-blend-mode:overlay">
<rect x="428.02" y="-474.06" width="595" height="334" rx="3.5" transform="rotate(45 428.02 -474.06)" stroke="white"/>
<rect x="866.426" y="-35.6537" width="595" height="334" rx="3.5" transform="rotate(45 866.426 -35.6537)" stroke="white"/>
<rect x="174.168" y="-220.208" width="595" height="334" rx="3.5" transform="rotate(45 174.168 -220.208)" stroke="white"/>
<rect x="612.574" y="218.198" width="595" height="334" rx="3.5" transform="rotate(45 612.574 218.198)" stroke="white"/>
<rect x="1050.98" y="656.604" width="595" height="334" rx="3.5" transform="rotate(45 1050.98 656.604)" stroke="white"/>
<rect x="-79.6836" y="33.6427" width="595" height="334" rx="3.5" transform="rotate(45 -79.6836 33.6427)" stroke="white"/>
<rect x="358.723" y="472.049" width="595" height="334" rx="3.5" transform="rotate(45 358.723 472.049)" stroke="white"/>
<rect x="797.129" y="910.455" width="595" height="334" rx="3.5" transform="rotate(45 797.129 910.455)" stroke="white"/>
<rect x="-333.535" y="287.494" width="595" height="334" rx="3.5" transform="rotate(45 -333.535 287.494)" stroke="white"/>
<rect x="104.871" y="725.9" width="595" height="334" rx="3.5" transform="rotate(45 104.871 725.9)" stroke="white"/>
<rect x="543.277" y="1164.31" width="595" height="334" rx="3.5" transform="rotate(45 543.277 1164.31)" stroke="white"/>
<rect x="-148.98" y="979.752" width="595" height="334" rx="3.5" transform="rotate(45 -148.98 979.752)" stroke="white"/>
<rect x="289.426" y="1418.16" width="595" height="334" rx="3.5" transform="rotate(45 289.426 1418.16)" stroke="white"/>
</g>
<mask id="path-14-inside-1_4418_42874" fill="white">
<path fill-rule="evenodd" clip-rule="evenodd" d="M450.5 276.718C450.573 276.718 450.633 276.777 450.636 276.851C455.297 431.17 579.548 555.421 733.868 560.083C733.941 560.085 734 560.145 734 560.218C734 560.292 733.941 560.352 733.868 560.354C579.548 565.016 455.297 689.267 450.636 843.586C450.633 843.659 450.573 843.718 450.5 843.718C450.427 843.718 450.367 843.659 450.364 843.586C445.702 689.267 321.452 565.016 167.132 560.354C167.059 560.352 167 560.292 167 560.218C167 560.145 167.059 560.085 167.132 560.083C321.452 555.421 445.703 431.17 450.364 276.851C450.367 276.777 450.427 276.718 450.5 276.718ZM515.68 570.74L425.037 623.882C423.216 625.002 421.129 625.605 418.997 625.629C416.864 625.653 414.765 625.097 412.919 624.019C411.073 622.941 409.55 621.381 408.509 619.504C407.468 617.626 406.948 615.5 407.003 613.349V507.065C406.948 504.914 407.468 502.788 408.509 500.91C409.55 499.032 411.073 497.473 412.919 496.395C414.765 495.317 416.864 494.76 418.997 494.785C421.129 494.809 423.216 495.412 425.037 496.532L515.68 550.153C517.45 551.213 518.917 552.719 519.935 554.524C520.954 556.328 521.49 558.37 521.49 560.446C521.49 562.523 520.954 564.564 519.935 566.369C518.917 568.174 517.45 569.68 515.68 570.74Z"/>
</mask>
<path fill-rule="evenodd" clip-rule="evenodd" d="M450.5 276.718C450.573 276.718 450.633 276.777 450.636 276.851C455.297 431.17 579.548 555.421 733.868 560.083C733.941 560.085 734 560.145 734 560.218C734 560.292 733.941 560.352 733.868 560.354C579.548 565.016 455.297 689.267 450.636 843.586C450.633 843.659 450.573 843.718 450.5 843.718C450.427 843.718 450.367 843.659 450.364 843.586C445.702 689.267 321.452 565.016 167.132 560.354C167.059 560.352 167 560.292 167 560.218C167 560.145 167.059 560.085 167.132 560.083C321.452 555.421 445.703 431.17 450.364 276.851C450.367 276.777 450.427 276.718 450.5 276.718ZM515.68 570.74L425.037 623.882C423.216 625.002 421.129 625.605 418.997 625.629C416.864 625.653 414.765 625.097 412.919 624.019C411.073 622.941 409.55 621.381 408.509 619.504C407.468 617.626 406.948 615.5 407.003 613.349V507.065C406.948 504.914 407.468 502.788 408.509 500.91C409.55 499.032 411.073 497.473 412.919 496.395C414.765 495.317 416.864 494.76 418.997 494.785C421.129 494.809 423.216 495.412 425.037 496.532L515.68 550.153C517.45 551.213 518.917 552.719 519.935 554.524C520.954 556.328 521.49 558.37 521.49 560.446C521.49 562.523 520.954 564.564 519.935 566.369C518.917 568.174 517.45 569.68 515.68 570.74Z" fill="url(#paint1_linear_4418_42874)"/>
<path d="M450.636 276.851L449.636 276.881L449.636 276.881L450.636 276.851ZM733.868 560.083L733.898 559.083L733.898 559.083L733.868 560.083ZM734 560.218H735L735 560.217L734 560.218ZM733.868 560.354L733.838 559.354L733.837 559.354L733.868 560.354ZM450.636 843.586L451.635 843.616L451.635 843.616L450.636 843.586ZM450.364 843.586L449.365 843.616L449.365 843.616L450.364 843.586ZM167.132 560.354L167.162 559.354L167.162 559.354L167.132 560.354ZM167 560.218L166 560.218L166 560.218L167 560.218ZM167.132 560.083L167.102 559.083L167.102 559.083L167.132 560.083ZM450.364 276.851L449.365 276.82L449.365 276.82L450.364 276.851ZM425.037 623.882L424.531 623.019L424.522 623.025L424.513 623.03L425.037 623.882ZM515.68 570.74L516.185 571.602L516.193 571.598L515.68 570.74ZM418.997 625.629L419.008 626.629L419.008 626.629L418.997 625.629ZM412.919 624.019L412.415 624.883L412.415 624.883L412.919 624.019ZM408.509 619.504L409.383 619.019L409.383 619.019L408.509 619.504ZM407.003 613.349L408.003 613.375L408.003 613.362V613.349H407.003ZM407.003 507.065H408.003V507.052L408.003 507.039L407.003 507.065ZM408.509 500.91L409.383 501.395L409.383 501.395L408.509 500.91ZM412.919 496.395L413.423 497.258L413.423 497.258L412.919 496.395ZM418.997 494.785L419.008 493.785L419.008 493.785L418.997 494.785ZM425.037 496.532L424.513 497.384L424.52 497.388L424.528 497.392L425.037 496.532ZM515.68 550.153L516.193 549.295L516.189 549.292L515.68 550.153ZM451.635 276.821C451.617 276.214 451.121 275.718 450.5 275.718V277.718C450.026 277.718 449.65 277.341 449.636 276.881L451.635 276.821ZM733.898 559.083C580.107 554.437 456.281 430.611 451.635 276.82L449.636 276.881C454.314 431.729 578.989 556.404 733.837 561.082L733.898 559.083ZM735 560.217C734.999 559.597 734.504 559.101 733.898 559.083L733.837 561.082C733.378 561.068 733 560.693 733 560.219L735 560.217ZM733.898 561.353C734.504 561.335 735 560.84 735 560.218H733C733 559.744 733.378 559.368 733.838 559.354L733.898 561.353ZM451.635 843.616C456.281 689.825 580.107 565.999 733.898 561.353L733.837 559.354C578.99 564.032 454.314 688.708 449.636 843.556L451.635 843.616ZM450.5 844.718C451.121 844.718 451.617 844.223 451.635 843.616L449.636 843.556C449.65 843.096 450.026 842.718 450.5 842.718V844.718ZM449.365 843.616C449.383 844.223 449.879 844.718 450.5 844.718V842.718C450.974 842.718 451.35 843.096 451.364 843.556L449.365 843.616ZM167.102 561.353C320.893 565.999 444.719 689.825 449.365 843.616L451.364 843.556C446.686 688.708 322.01 564.032 167.162 559.354L167.102 561.353ZM166 560.218C166 560.839 166.495 561.335 167.102 561.353L167.162 559.354C167.623 559.368 168 559.745 168 560.218L166 560.218ZM167.102 559.083C166.495 559.102 166 559.597 166 560.218L168 560.218C168 560.692 167.623 561.068 167.163 561.082L167.102 559.083ZM449.365 276.82C444.719 430.611 320.893 554.437 167.102 559.083L167.162 561.082C322.01 556.404 446.686 431.729 451.364 276.881L449.365 276.82ZM450.5 275.718C449.879 275.718 449.383 276.214 449.365 276.82L451.364 276.881C451.35 277.341 450.974 277.718 450.5 277.718V275.718ZM425.543 624.745L516.185 571.602L515.174 569.877L424.531 623.019L425.543 624.745ZM419.008 626.629C421.322 626.603 423.586 625.948 425.561 624.734L424.513 623.03C422.846 624.055 420.936 624.607 418.985 624.629L419.008 626.629ZM412.415 624.883C414.416 626.052 416.694 626.655 419.008 626.629L418.985 624.629C417.034 624.651 415.113 624.143 413.423 623.156L412.415 624.883ZM407.634 619.989C408.762 622.023 410.413 623.714 412.415 624.883L413.423 623.156C411.734 622.169 410.338 620.74 409.383 619.019L407.634 619.989ZM406.004 613.324C405.943 615.652 406.507 617.955 407.634 619.989L409.383 619.019C408.429 617.298 407.952 615.348 408.003 613.375L406.004 613.324ZM406.003 507.065V613.349H408.003V507.065H406.003ZM407.634 500.425C406.507 502.459 405.943 504.762 406.004 507.09L408.003 507.039C407.952 505.066 408.429 503.116 409.383 501.395L407.634 500.425ZM412.415 495.531C410.413 496.7 408.762 498.391 407.634 500.425L409.383 501.395C410.338 499.674 411.734 498.245 413.423 497.258L412.415 495.531ZM419.008 493.785C416.694 493.758 414.416 494.362 412.415 495.531L413.423 497.258C415.113 496.271 417.034 495.762 418.985 495.785L419.008 493.785ZM425.561 495.68C423.586 494.466 421.322 493.811 419.008 493.785L418.985 495.785C420.936 495.807 422.846 496.359 424.513 497.384L425.561 495.68ZM516.189 549.292L425.546 495.671L424.528 497.392L515.17 551.014L516.189 549.292ZM520.806 554.032C519.703 552.077 518.113 550.444 516.193 549.295L515.166 551.011C516.787 551.981 518.131 553.361 519.064 555.015L520.806 554.032ZM522.49 560.446C522.49 558.198 521.91 555.987 520.806 554.032L519.064 555.015C519.998 556.67 520.49 558.541 520.49 560.446H522.49ZM520.806 566.86C521.91 564.905 522.49 562.695 522.49 560.446H520.49C520.49 562.351 519.998 564.223 519.064 565.877L520.806 566.86ZM516.193 571.598C518.113 570.448 519.703 568.816 520.806 566.86L519.064 565.877C518.131 567.532 516.787 568.911 515.166 569.882L516.193 571.598Z" fill="white" mask="url(#path-14-inside-1_4418_42874)"/>
<path d="M564.473 898.418H586.663V902.093H578.228L578.298 922.918H572.838L572.908 902.093H564.473V898.418Z" fill="white"/>
<path d="M564.047 922.918H558.412L555.367 916.058H543.012L539.967 922.918H534.402L545.602 898.418H552.812L564.047 922.918ZM549.172 902.198L544.482 912.768H553.897L549.172 902.198Z" fill="white"/>
<path d="M503.102 922.918H491.762V898.418H503.137C512.307 898.418 518.572 903.073 518.572 910.633C518.572 918.158 512.377 922.918 503.102 922.918ZM497.187 901.708V919.593H502.927C508.947 919.593 513.077 916.233 513.077 910.703C513.077 905.173 508.982 901.708 502.857 901.708H497.187Z" fill="white"/>
<path d="M484.591 898.418V901.883L470.136 901.813V909.023L482.806 908.988V912.173L470.136 912.138V919.418L484.871 919.348V922.918H464.746V898.418H484.591Z" fill="white"/>
<path d="M436.535 898.418H458.725V902.093H450.29L450.36 922.918H444.9L444.97 902.093H436.535V898.418Z" fill="white"/>
<path d="M436.114 922.918H430.479L427.434 916.058H415.079L412.034 922.918H406.469L417.669 898.418H424.879L436.114 922.918ZM421.239 902.198L416.549 912.768H425.964L421.239 902.198Z" fill="white"/>
<path d="M401.083 898.418V901.883L386.628 901.813V909.023L399.298 908.988V912.173L386.628 912.138V919.418L401.363 919.348V922.918H381.238V898.418H401.083Z" fill="white"/>
<path d="M356.3 922.918H350.875V898.418H362.775C369.25 898.418 373.38 901.148 373.38 905.418C373.38 909.023 370.405 911.438 365.82 911.438H364.735V911.613H365.155C370.09 911.613 372.505 913.923 373.485 917.878L374.64 922.918H368.48L367.465 918.158C366.765 915.078 364.525 913.783 361.55 913.783H356.3V922.918ZM356.3 901.638V910.843H362.46C365.785 910.843 367.955 909.058 367.955 906.258C367.955 903.458 365.75 901.638 362.32 901.638H356.3Z" fill="white"/>
<path d="M329.487 923.618C320.702 923.618 314.332 918.473 314.332 910.703C314.332 902.863 320.702 897.718 329.557 897.718C337.712 897.718 343.557 901.953 343.907 908.148L338.517 908.323C338.167 904.088 334.597 901.218 329.487 901.218C323.922 901.218 319.897 905.033 319.897 910.633C319.897 916.233 323.922 919.978 329.522 919.978C334.527 919.978 338.237 917.213 338.657 913.013L343.942 913.153C343.592 919.348 337.712 923.618 329.487 923.618Z" fill="white"/>
<g filter="url(#filter0_d_4418_42874)">
<path fill-rule="evenodd" clip-rule="evenodd" d="M300.235 984.724C300.234 984.708 300.222 984.696 300.206 984.696C300.191 984.696 300.178 984.708 300.178 984.724C299.207 1016.85 273.527 1042.76 241.496 1044.1V1026.48H260.522V1015.38H237.227V1014.77C241.618 1013.55 243.813 1008.92 243.813 1001.72V999.038H225.518V1007.58C225.518 1012.58 222.957 1015.38 218.444 1015.38H211.736V1026.48H223.566V1053.07C223.566 1070.27 233.324 1078.07 247.35 1078.07C252.107 1078.07 256.254 1077.59 260.278 1076.85L260.522 1064.05C257.961 1064.66 255.278 1064.9 253.448 1064.9C245.764 1064.9 241.496 1059.78 241.496 1050.75V1044.21C273.527 1045.55 299.207 1071.46 300.178 1103.59C300.178 1103.6 300.191 1103.61 300.206 1103.61C300.214 1103.61 300.22 1103.61 300.225 1103.61C300.227 1103.61 300.228 1103.6 300.229 1103.6C300.231 1103.6 300.231 1103.6 300.232 1103.6C300.234 1103.59 300.235 1103.59 300.235 1103.59C301.086 1075.41 320.953 1052.01 347.441 1045.78V1077.08H365.492V1050.86C365.492 1037.2 371.468 1029.52 382.689 1029.52C384.641 1029.52 387.568 1029.76 391.105 1030.49L391.471 1015.25C389.031 1014.76 386.958 1014.64 385.007 1014.64C374.03 1014.64 367.077 1021.34 365.37 1030.25H364.516L365.492 1015.37H347.441V1042.53C320.953 1036.31 301.086 1012.9 300.235 984.724ZM294.868 1057.51L313.879 1046.36C314.25 1046.14 314.558 1045.82 314.771 1045.45C314.985 1045.07 315.097 1044.64 315.097 1044.2C315.097 1043.77 314.985 1043.34 314.771 1042.96C314.558 1042.58 314.25 1042.27 313.879 1042.04L294.868 1030.8C294.486 1030.56 294.049 1030.44 293.601 1030.43C293.154 1030.43 292.714 1030.54 292.327 1030.77C291.94 1031 291.62 1031.32 291.402 1031.72C291.184 1032.11 291.074 1032.56 291.086 1033.01V1055.3C291.074 1055.75 291.184 1056.2 291.402 1056.59C291.62 1056.98 291.94 1057.31 292.327 1057.54C292.714 1057.76 293.154 1057.88 293.601 1057.87C294.049 1057.87 294.486 1057.74 294.868 1057.51Z" fill="white"/>
<path d="M491.022 1046.35C491.022 1067.21 508.341 1079.53 530.295 1079.53C552.249 1079.53 566.275 1067.45 567.495 1052.45L550.42 1051.96C549.322 1061.35 541.028 1067.82 530.539 1067.82C518.098 1067.82 509.561 1058.67 509.561 1045.98C509.561 1033.3 518.098 1024.03 530.173 1024.03C540.662 1024.03 548.59 1030.86 549.688 1040.25L566.885 1039.52C565.665 1024.27 551.273 1012.93 530.173 1012.93C508.097 1012.93 491.022 1025.62 491.022 1046.35Z" fill="white"/>
<path fill-rule="evenodd" clip-rule="evenodd" d="M610.632 1079.53C587.824 1079.53 571.237 1065.87 571.237 1046.35C571.237 1026.96 587.581 1012.93 610.754 1012.93C633.562 1012.93 650.15 1026.59 650.15 1046.11C650.15 1065.5 633.806 1079.53 610.632 1079.53ZM610.876 1068.31C622.951 1068.31 631.611 1059.04 631.611 1046.23C631.611 1033.18 622.707 1023.79 610.51 1023.79C598.436 1023.79 589.776 1033.18 589.776 1046.11C589.776 1059.04 598.679 1068.31 610.876 1068.31Z" fill="white"/>
<path d="M747.81 1014.15C764.641 1014.15 775.009 1024.88 775.009 1042.56V1077.08H756.957V1044.52C756.957 1032.81 751.225 1025.85 741.712 1025.85C731.71 1025.85 725.856 1032.32 725.856 1043.3V1077.08H707.805V1044.52C707.805 1032.81 701.828 1025.85 691.827 1025.85C681.704 1025.85 675.606 1032.81 675.606 1044.64V1077.08H657.554V1015.37H675.362L675.118 1029.51H675.971C679.021 1020 687.558 1014.15 698.901 1014.15C710.976 1014.15 719.636 1019.76 723.538 1029.51H723.66C726.832 1020.37 735.979 1014.15 747.81 1014.15Z" fill="white"/>
<path d="M487.721 1069.41C487.721 1075.99 482.041 1080.75 474.12 1080.75C466.119 1080.75 460.278 1075.99 460.278 1069.35C460.278 1062.7 465.959 1057.88 473.88 1057.88C481.88 1057.88 487.721 1062.7 487.721 1069.41Z" fill="white"/>
<path d="M455.801 1015.38L435.676 1061.6L412.503 1015.38H393.598L425.797 1075.75H429.578L427.87 1079.65C424.943 1086.36 419.211 1089.53 411.893 1089.53C407.99 1089.53 403.477 1088.8 399.33 1087.34L397.745 1100.39C402.623 1101.73 407.624 1102.46 413.356 1102.46C426.895 1102.46 436.53 1095.87 442.994 1080.99L472.388 1015.38H455.801Z" fill="white"/>
<path d="M125.988 1048.07C126.72 1067.34 143.552 1079.53 169.896 1079.53C193.314 1079.53 210.633 1070.14 210.633 1053.19C210.633 1040.14 200.998 1029.65 179.898 1027.09L160.871 1024.65C152.211 1023.55 147.576 1019.28 147.576 1013.18C147.576 1005.13 155.382 1000.25 167.091 1000.25C180.873 1000.25 189.899 1007.94 190.509 1019.89L207.706 1019.4C207.218 1000.86 191.85 989.278 167.701 989.278C143.308 989.278 129.403 1000.25 129.403 1015.74C129.403 1030.62 140.99 1038.92 157.09 1040.87L175.995 1043.19C186.362 1044.53 192.338 1049.16 192.338 1055.75C192.338 1063.56 184.045 1068.31 170.628 1068.31C154.529 1068.31 144.039 1060.14 143.673 1047.58L125.988 1048.07Z" fill="white"/>
</g>
<path d="M595.959 1250.52H591.629V1223.69H595.959V1250.52Z" fill="white"/>
<path d="M588.766 1250.52H584.129L580.182 1242.12H565.657L561.748 1250.52H557.188L569.988 1223.69H575.928L588.766 1250.52ZM572.9 1226.68L566.922 1239.44H578.917L572.9 1226.68Z" fill="white"/>
<path d="M537.635 1230.78C542.885 1230.78 546.066 1234.19 546.066 1239.75V1250.52H541.85V1240.21C541.85 1236.07 539.666 1233.58 536.025 1233.58C532.27 1233.58 530.009 1236.14 530.009 1240.44V1250.52H525.793V1223.31H530.009V1235.95H530.238C531.12 1232.77 533.918 1230.78 537.635 1230.78Z" fill="white"/>
<path d="M518.193 1250.82C513.978 1250.82 511.218 1248.41 511.218 1243.31V1233.81H507.348V1231.16H509.532C511.027 1231.16 511.87 1230.28 511.87 1228.71V1225.99H516.085V1227.1C516.085 1229.25 515.434 1230.66 514.131 1230.97V1231.16H522.026V1233.81H515.396V1242.85C515.396 1245.99 516.89 1247.76 519.534 1247.76C520.263 1247.76 521.221 1247.64 522.14 1247.41L522.102 1250.36C520.876 1250.67 519.573 1250.82 518.193 1250.82Z" fill="white"/>
<path d="M502.189 1227.56C500.312 1227.56 499.047 1226.6 499.047 1225.15C499.047 1223.65 500.312 1222.69 502.189 1222.69C504.106 1222.69 505.37 1223.65 505.37 1225.15C505.37 1226.6 504.106 1227.56 502.189 1227.56ZM500.082 1250.52V1231.16H504.297V1250.52H500.082Z" fill="white"/>
<path d="M474.428 1250.52H469.637L462.586 1231.16H467.108L472.588 1246.95L478.03 1231.16H482.629L488.033 1246.95L493.628 1231.16H497.154L490.102 1250.52H485.657L480.061 1234.53L474.428 1250.52Z" fill="white"/>
<path d="M442.444 1251.24C436.542 1251.24 432.518 1248.56 431.828 1244.42L435.622 1244.23C436.197 1247.14 438.726 1249.02 442.597 1249.02C445.701 1249.02 447.847 1247.83 447.847 1245.84C447.847 1244.12 446.391 1243 443.67 1242.62L439.493 1242.12C434.856 1241.55 432.825 1239.4 432.825 1236.53C432.825 1232.89 436.465 1230.47 441.677 1230.47C447.272 1230.47 450.99 1233.19 451.411 1237.1L447.656 1237.26C447.272 1234.34 444.935 1232.62 441.524 1232.62C438.611 1232.62 436.695 1233.88 436.695 1235.84C436.695 1237.45 437.922 1238.44 440.144 1238.75L444.36 1239.29C448.882 1239.82 451.948 1241.74 451.948 1245.15C451.948 1248.94 447.924 1251.24 442.444 1251.24Z" fill="white"/>
<path d="M431.394 1250.52H426.106L417.291 1240.97L413.727 1243.58V1250.52H409.512V1223.31H413.727V1239.63L425.454 1231.16H430.705L420.319 1238.79L431.394 1250.52Z" fill="white"/>
<path d="M393.567 1251.28C386.745 1251.28 381.648 1247.03 381.648 1240.9C381.648 1234.92 386.592 1230.4 393.605 1230.4C400.465 1230.4 405.562 1234.69 405.562 1240.82C405.562 1246.8 400.618 1251.28 393.567 1251.28ZM393.682 1248.68C398.089 1248.68 401.232 1245.38 401.232 1240.9C401.232 1236.3 397.936 1232.96 393.49 1232.96C389.121 1232.96 385.979 1236.26 385.979 1240.78C385.979 1245.38 389.236 1248.68 393.682 1248.68Z" fill="white"/>
<path d="M359.703 1223.69H383.502V1226.68H373.729L373.806 1250.52H369.361L369.437 1226.68H359.703V1223.69Z" fill="white"/>
<path d="M360.023 1250.52H354.735L345.92 1240.97L342.356 1243.58V1250.52H338.141V1223.31H342.356V1239.63L354.083 1231.16H359.333L348.948 1238.79L360.023 1250.52Z" fill="white"/>
<path d="M331.08 1227.56C329.202 1227.56 327.938 1226.6 327.938 1225.15C327.938 1223.65 329.202 1222.69 331.08 1222.69C332.996 1222.69 334.261 1223.65 334.261 1225.15C334.261 1226.6 332.996 1227.56 331.08 1227.56ZM328.972 1250.52V1231.16H333.188V1250.52H328.972Z" fill="white"/>
<path d="M301.766 1223.69H325.564V1226.68H315.792L315.869 1250.52H311.423L311.5 1226.68H301.766V1223.69Z" fill="white"/>
<path d="M669.307 1164.73C670.686 1164.73 671.862 1164.97 672.832 1165.46C673.829 1165.92 674.595 1166.58 675.132 1167.45C675.668 1168.32 675.937 1169.38 675.937 1170.63C675.937 1172.24 675.413 1173.61 674.365 1174.73C673.343 1175.86 672.04 1176.88 670.456 1177.8L677.853 1184.93C678.517 1184.14 679.054 1183.23 679.462 1182.21C679.897 1181.16 680.254 1180.03 680.535 1178.83H683.946C683.537 1180.47 683.026 1181.99 682.413 1183.39C681.8 1184.8 681.008 1186.03 680.037 1187.07L685.632 1192.52H681.072L677.738 1189.3C677.125 1189.83 676.486 1190.33 675.822 1190.79C675.183 1191.23 674.48 1191.6 673.714 1191.9C672.947 1192.21 672.117 1192.45 671.223 1192.63C670.354 1192.81 669.383 1192.9 668.31 1192.9C666.547 1192.9 665.014 1192.62 663.711 1192.06C662.434 1191.47 661.438 1190.61 660.722 1189.49C660.032 1188.36 659.688 1187 659.688 1185.39C659.688 1184.08 659.917 1182.96 660.377 1182.02C660.863 1181.07 661.553 1180.23 662.447 1179.49C663.341 1178.74 664.388 1178.03 665.589 1177.34C665.053 1176.73 664.529 1176.09 664.018 1175.42C663.507 1174.76 663.086 1174.04 662.753 1173.28C662.421 1172.49 662.255 1171.63 662.255 1170.71C662.255 1169.46 662.536 1168.38 663.098 1167.49C663.66 1166.6 664.465 1165.92 665.513 1165.46C666.586 1164.97 667.85 1164.73 669.307 1164.73ZM667.62 1179.45C666.701 1179.98 665.909 1180.53 665.244 1181.1C664.606 1181.63 664.107 1182.23 663.75 1182.9C663.392 1183.56 663.213 1184.35 663.213 1185.27C663.213 1186.68 663.686 1187.8 664.631 1188.64C665.577 1189.49 666.841 1189.91 668.425 1189.91C670.06 1189.91 671.466 1189.64 672.641 1189.1C673.816 1188.57 674.8 1187.93 675.592 1187.19L667.62 1179.45ZM669.192 1167.49C668.119 1167.49 667.237 1167.77 666.547 1168.33C665.883 1168.9 665.551 1169.67 665.551 1170.67C665.551 1171.59 665.794 1172.45 666.279 1173.24C666.765 1174.01 667.467 1174.86 668.387 1175.81C669.894 1174.94 670.967 1174.12 671.606 1173.35C672.27 1172.56 672.602 1171.65 672.602 1170.63C672.602 1169.71 672.296 1168.96 671.683 1168.37C671.07 1167.78 670.239 1167.49 669.192 1167.49Z" fill="white"/>
<path d="M638.549 1193.24C632.647 1193.24 628.623 1190.56 627.934 1186.42L631.728 1186.23C632.302 1189.14 634.832 1191.02 638.702 1191.02C641.807 1191.02 643.953 1189.83 643.953 1187.84C643.953 1186.12 642.496 1185 639.775 1184.62L635.598 1184.12C630.961 1183.55 628.93 1181.4 628.93 1178.53C628.93 1174.89 632.571 1172.47 637.783 1172.47C643.378 1172.47 647.095 1175.19 647.517 1179.1L643.761 1179.26C643.378 1176.34 641.04 1174.62 637.629 1174.62C634.717 1174.62 632.801 1175.88 632.801 1177.84C632.801 1179.45 634.027 1180.44 636.25 1180.75L640.465 1181.29C644.987 1181.82 648.053 1183.74 648.053 1187.15C648.053 1190.94 644.029 1193.24 638.549 1193.24Z" fill="white"/>
<path d="M627.5 1192.52H622.211L613.397 1182.97L609.833 1185.58V1192.52H605.617V1165.31H609.833V1181.63L621.56 1173.16H626.81L616.424 1180.79L627.5 1192.52Z" fill="white"/>
<path d="M589.676 1193.28C582.855 1193.28 577.758 1189.03 577.758 1182.9C577.758 1176.92 582.702 1172.4 589.715 1172.4C596.575 1172.4 601.672 1176.69 601.672 1182.82C601.672 1188.8 596.728 1193.28 589.676 1193.28ZM589.791 1190.68C594.199 1190.68 597.341 1187.38 597.341 1182.9C597.341 1178.3 594.045 1174.96 589.6 1174.96C585.231 1174.96 582.088 1178.26 582.088 1182.78C582.088 1187.38 585.346 1190.68 589.791 1190.68Z" fill="white"/>
<path d="M562.766 1193.28C555.945 1193.28 550.848 1189.03 550.848 1182.9C550.848 1176.92 555.791 1172.4 562.805 1172.4C569.664 1172.4 574.761 1176.69 574.761 1182.82C574.761 1188.8 569.818 1193.28 562.766 1193.28ZM562.881 1190.68C567.288 1190.68 570.431 1187.38 570.431 1182.9C570.431 1178.3 567.135 1174.96 562.69 1174.96C558.321 1174.96 555.178 1178.26 555.178 1182.78C555.178 1187.38 558.436 1190.68 562.881 1190.68Z" fill="white"/>
<path d="M537.765 1192.52H523.777V1165.69H536.654C542.709 1165.69 546.58 1168.37 546.58 1172.47C546.58 1175.96 543.706 1178.11 539.337 1178.37V1178.64C544.472 1178.83 547.844 1181.33 547.844 1185.39C547.844 1189.76 543.974 1192.52 537.765 1192.52ZM528.146 1168.1V1177.76H535.849C539.682 1177.76 542.096 1175.88 542.096 1172.93C542.096 1169.98 539.682 1168.1 535.849 1168.1H528.146ZM528.146 1179.98V1190.06H537.037C540.87 1190.06 543.322 1188.11 543.322 1185.12C543.322 1181.98 540.87 1179.98 537.037 1179.98H528.146Z" fill="white"/>
<path d="M508.531 1196.04H505.887L507.42 1187.27H511.712L508.531 1196.04Z" fill="white"/>
<path d="M493.866 1193.24C487.964 1193.24 483.94 1190.56 483.25 1186.42L487.044 1186.23C487.619 1189.14 490.148 1191.02 494.019 1191.02C497.123 1191.02 499.269 1189.83 499.269 1187.84C499.269 1186.12 497.813 1185 495.092 1184.62L490.915 1184.12C486.278 1183.55 484.246 1181.4 484.246 1178.53C484.246 1174.89 487.887 1172.47 493.099 1172.47C498.694 1172.47 502.412 1175.19 502.833 1179.1L499.078 1179.26C498.694 1176.34 496.357 1174.62 492.946 1174.62C490.033 1174.62 488.117 1175.88 488.117 1177.84C488.117 1179.45 489.343 1180.44 491.566 1180.75L495.782 1181.29C500.304 1181.82 503.37 1183.74 503.37 1187.15C503.37 1190.94 499.346 1193.24 493.866 1193.24Z" fill="white"/>
<path d="M468.567 1193.28C461.745 1193.28 456.648 1189.03 456.648 1182.9C456.648 1176.92 461.592 1172.4 468.605 1172.4C475.465 1172.4 480.562 1176.69 480.562 1182.82C480.562 1188.8 475.619 1193.28 468.567 1193.28ZM468.682 1190.68C473.089 1190.68 476.232 1187.38 476.232 1182.9C476.232 1178.3 472.936 1174.96 468.49 1174.96C464.121 1174.96 460.979 1178.26 460.979 1182.78C460.979 1187.38 464.236 1190.68 468.682 1190.68Z" fill="white"/>
<path d="M453.734 1181.94C453.734 1182.21 453.734 1182.59 453.657 1183.01H435.53C435.53 1187.69 438.673 1190.6 442.889 1190.6C446.376 1190.6 449.25 1188.57 449.825 1185.73L453.542 1185.96C452.891 1190.14 448.522 1193.28 442.735 1193.28C436.144 1193.28 431.238 1189.26 431.238 1182.86C431.238 1176.53 436.105 1172.4 442.659 1172.4C449.02 1172.4 453.734 1176.23 453.734 1181.94ZM435.569 1181.06L449.557 1180.98C449.557 1177.3 446.606 1174.66 442.62 1174.66C438.673 1174.66 435.875 1177.26 435.569 1181.06Z" fill="white"/>
<path d="M423.125 1177.61V1165.31H427.34V1192.52H423.125L423.201 1188.11H422.856C421.898 1191.06 418.487 1193.21 414.502 1193.21C408.293 1193.21 403.656 1188.95 403.656 1182.9C403.656 1176.96 408.14 1172.51 414.578 1172.51C418.449 1172.51 421.898 1174.58 422.856 1177.61H423.125ZM415.728 1190.68C419.982 1190.68 423.239 1187.46 423.239 1182.86C423.239 1178.37 420.059 1175 415.498 1175C411.244 1175 407.987 1178.18 407.987 1182.78C407.987 1187.3 411.168 1190.68 415.728 1190.68Z" fill="white"/>
<path d="M397.623 1169.56C395.745 1169.56 394.48 1168.6 394.48 1167.15C394.48 1165.65 395.745 1164.69 397.623 1164.69C399.539 1164.69 400.804 1165.65 400.804 1167.15C400.804 1168.6 399.539 1169.56 397.623 1169.56ZM395.515 1192.52V1173.16H399.731V1192.52H395.515Z" fill="white"/>
<path d="M380.551 1192.52H374.381L362.539 1165.69H367.138L377.562 1189.79L387.947 1165.69H392.393L380.551 1192.52Z" fill="white"/>
<path d="M352.238 1181.94C352.238 1182.21 352.238 1182.59 352.161 1183.01H334.034C334.034 1187.69 337.177 1190.6 341.392 1190.6C344.88 1190.6 347.754 1188.57 348.329 1185.73L352.046 1185.96C351.395 1190.14 347.026 1193.28 341.239 1193.28C334.648 1193.28 329.742 1189.26 329.742 1182.86C329.742 1176.53 334.609 1172.4 341.163 1172.4C347.524 1172.4 352.238 1176.23 352.238 1181.94ZM334.073 1181.06L348.061 1180.98C348.061 1177.3 345.11 1174.66 341.124 1174.66C337.177 1174.66 334.379 1177.26 334.073 1181.06Z" fill="white"/>
<path d="M324.295 1192.82C320.079 1192.82 317.32 1190.41 317.32 1185.31V1175.81H313.449V1173.16H315.634C317.128 1173.16 317.971 1172.28 317.971 1170.71V1167.99H322.187V1169.1C322.187 1171.25 321.535 1172.66 320.232 1172.97V1173.16H328.127V1175.81H321.497V1184.85C321.497 1187.99 322.992 1189.76 325.636 1189.76C326.364 1189.76 327.322 1189.64 328.242 1189.41L328.204 1192.36C326.977 1192.67 325.674 1192.82 324.295 1192.82Z" fill="white"/>
<path d="M298.028 1192.94C293.467 1192.94 290.555 1191.02 290.555 1187.53C290.555 1184.08 293.467 1181.9 298.564 1181.36L303.7 1180.79C305.041 1180.64 306.765 1180.25 306.765 1178.49C306.765 1176.53 304.696 1174.89 301.592 1174.89C298.181 1174.89 295.843 1176.92 295.575 1179.68L291.436 1179.6C291.896 1175.54 295.69 1172.47 301.707 1172.47C306.957 1172.47 311.058 1174.81 311.058 1179.64V1186.81L311.901 1192.52H307.839L307.264 1187.88H306.957C306.037 1190.91 302.703 1192.94 298.028 1192.94ZM299.752 1190.56C303.968 1190.56 306.842 1188.18 306.842 1184.43V1181.29H306.536C306.114 1181.9 305.041 1182.44 303.623 1182.67L299.292 1183.28C296.456 1183.7 294.847 1185.04 294.847 1187.07C294.847 1189.26 296.648 1190.56 299.752 1190.56Z" fill="white"/>
<path d="M287.679 1181.94C287.679 1182.21 287.679 1182.59 287.603 1183.01H269.476C269.476 1187.69 272.618 1190.6 276.834 1190.6C280.321 1190.6 283.196 1188.57 283.77 1185.73L287.488 1185.96C286.836 1190.14 282.467 1193.28 276.681 1193.28C270.089 1193.28 265.184 1189.26 265.184 1182.86C265.184 1176.53 270.051 1172.4 276.604 1172.4C282.966 1172.4 287.679 1176.23 287.679 1181.94ZM269.514 1181.06L283.502 1180.98C283.502 1177.3 280.551 1174.66 276.566 1174.66C272.618 1174.66 269.821 1177.26 269.514 1181.06Z" fill="white"/>
<path d="M255.118 1192.52H250.902V1173.16H255.118L254.926 1178.14H255.271C255.808 1175.12 258.145 1172.93 261.71 1172.93C262.323 1172.93 263.013 1173.01 263.856 1173.16L263.741 1176.73C262.744 1176.5 261.786 1176.42 261.135 1176.42C257.264 1176.42 255.118 1179.14 255.118 1183.93V1192.52Z" fill="white"/>
<path d="M231.501 1193.28C222.112 1193.28 215.367 1187.57 215.367 1179.14C215.367 1170.63 222.112 1164.92 231.578 1164.92C240.086 1164.92 246.294 1169.48 246.754 1176.11L242.385 1176.27C241.925 1171.25 237.556 1167.76 231.501 1167.76C224.718 1167.76 219.889 1172.4 219.889 1179.06C219.889 1185.77 224.718 1190.29 231.54 1190.29C237.518 1190.29 242.04 1186.96 242.538 1182.02L246.792 1182.13C246.294 1188.72 240.086 1193.28 231.501 1193.28Z" fill="white"/>
</g>
<defs>
<filter id="filter0_d_4418_42874" x="118.266" y="982.379" width="664.464" height="134.363" filterUnits="userSpaceOnUse" color-interpolation-filters="sRGB">
<feFlood flood-opacity="0" result="BackgroundImageFix"/>
<feColorMatrix in="SourceAlpha" type="matrix" values="0 0 0 0 0 0 0 0 0 0 0 0 0 0 0 0 0 0 127 0" result="hardAlpha"/>
<feOffset dy="5.4054"/>
<feGaussianBlur stdDeviation="3.861"/>
<feComposite in2="hardAlpha" operator="out"/>
<feColorMatrix type="matrix" values="0 0 0 0 0.243137 0 0 0 0 0.0352941 0 0 0 0 0.364706 0 0 0 1 0"/>
<feBlend mode="normal" in2="BackgroundImageFix" result="effect1_dropShadow_4418_42874"/>
<feBlend mode="normal" in="SourceGraphic" in2="effect1_dropShadow_4418_42874" result="shape"/>
</filter>
<linearGradient id="paint0_linear_4418_42874" x1="718.563" y1="0" x2="718.563" y2="1604.79" gradientUnits="userSpaceOnUse">
<stop stop-color="#021017"/>
<stop offset="1" stop-color="#6B21A8"/>
</linearGradient>
<linearGradient id="paint1_linear_4418_42874" x1="450.5" y1="276.718" x2="450.5" y2="843.718" gradientUnits="userSpaceOnUse">
<stop stop-color="#F8FAFC"/>
<stop offset="1" stop-color="#F8FAFC" stop-opacity="0"/>
</linearGradient>
<clipPath id="clip0_4418_42874">
<rect width="900" height="1600" fill="white" transform="translate(0.871094)"/>
</clipPath>
</defs>
</svg>
